<?xml version="1.0" standalone="no"?>
<!DOCTYPE svg PUBLIC "-//W3C//DTD SVG 1.1//EN" "http://www.w3.org/Graphics/SVG/1.1/DTD/svg11.dtd" >
<svg xmlns="http://www.w3.org/2000/svg">
<metadata></metadata>
<defs>
<font id="senticosansdtextrabold" horiz-adv-x="1253" >
<font-face units-per-em="2048" ascent="1638" descent="-410" />
<missing-glyph horiz-adv-x="501" />
<glyph unicode="&#xfb03;" horiz-adv-x="2123" d="M20 698v312h136v96q0 169 94.5 254.5t306.5 85.5q107 0 250 -21l-23 -303q-84 19 -135 19q-62 0 -84 -28t-22 -75v-28h346v96q0 169 94.5 254.5t306.5 85.5q107 0 250 -21l-22 -303q-84 19 -136 19q-62 0 -84 -28t-22 -75v-28h213v-312h-213v-698h-387v698h-346v-698 h-387v698h-136zM1614 1278q0 38 1 60.5t5 47.5t12.5 38.5t22.5 26.5t35.5 19t51 9.5t70.5 3.5q48 0 81 -4t55.5 -15t35 -24t19.5 -40t8.5 -52t1.5 -70t-1.5 -70.5t-8.5 -52t-19.5 -39.5t-35 -24.5t-55.5 -15t-81 -3.5t-80 3.5t-54.5 15t-35 24t-19 39.5t-8 52.5t-1.5 70.5z M1622 0v1024h387v-1024h-387z" />
<glyph unicode="&#xfb04;" horiz-adv-x="2154" d="M20 698v312h136v96q0 169 94.5 254.5t306.5 85.5q107 0 250 -21l-23 -303q-84 19 -135 19q-62 0 -84 -28t-22 -75v-28h346v96q0 169 94.5 254.5t306.5 85.5q107 0 250 -21l-22 -303q-84 19 -136 19q-62 0 -84 -28t-22 -75v-28h213v-312h-213v-698h-387v698h-346v-698 h-387v698h-136zM1614 274v1145l387 35v-1124q0 -29 31 -29q39 0 86 14l57 -282q-154 -53 -315 -53q-84 0 -130 11t-73.5 46.5t-35 87.5t-7.5 149z" />
<glyph horiz-adv-x="0" />
<glyph horiz-adv-x="682" />
<glyph unicode=" "  horiz-adv-x="501" />
<glyph unicode="&#x09;" horiz-adv-x="501" />
<glyph unicode="&#xa0;" horiz-adv-x="501" />
<glyph unicode="!" horiz-adv-x="624" d="M111 193q0 46 1.5 71.5t8 53t19 41t35 25t55.5 15.5t81 4q49 0 82 -4t56 -15.5t36 -25t19.5 -41t8 -53t1.5 -71.5q0 -39 -1 -62.5t-5 -49t-13 -39t-23 -27.5t-36.5 -20t-52.5 -9.5t-72 -3.5q-48 0 -81 4t-55.5 16t-35 25t-19 40.5t-8 53.5t-1.5 72zM113 1391h401l-8 -574 l-41 -340h-303l-45 340z" />
<glyph unicode="&#x22;" horiz-adv-x="989" d="M111.5 1334q-0.5 15 1.5 31.5t3 23.5t8 15t12 10t18 4.5t24 2.5h33h102h33.5t24.5 -3t18 -4.5t11 -10.5t7 -15.5t2.5 -24t0.5 -31t-2 -42.5l-13 -344q-2 -34 -14 -40.5t-78 -6.5h-78q-51 0 -68.5 3t-24 11.5t-7.5 34.5l-12 344q-1 27 -1.5 42zM577.5 1346 q-0.5 18 3.5 35.5t8 23t18.5 10.5t27.5 5.5t43 0.5h100h42.5t27 -6.5t17.5 -11t7 -24t2.5 -35t-2.5 -54.5l-10 -344q-2 -34 -14 -40.5t-78 -6.5h-80q-51 0 -68.5 3t-24 11.5t-7.5 34.5l-10 344q-2 36 -2.5 54z" />
<glyph unicode="#" horiz-adv-x="1355" d="M23 373l40 266h201l29 178h-213l41 264h211l49 316h289l-47 -316h206l50 316h288l-47 -316h197l-37 -264h-197l-26 -178h200l-34 -266h-205l-45 -314h-297l47 314h-203l-45 -314h-299l47 314h-200zM559 639h205l27 178h-205z" />
<glyph unicode="$" d="M119 979q0 179 88.5 282.5t286.5 127.5v223h276v-226q191 -26 305 -63l-33 -332q-206 101 -405 101q-143 0 -143 -113q0 -23 3 -35.5t18.5 -25t39.5 -21t74.5 -22t116.5 -29.5q22 -5 34 -8q122 -28 196.5 -72.5t115.5 -127t41 -210.5q0 -191 -82.5 -297t-280.5 -137v-225 h-276v219q-180 17 -373 84l49 323q259 -102 424 -102q83 0 124.5 28t41.5 97q0 21 -3 35t-15 27t-27 21t-48.5 18.5t-70 19.5t-100.5 22q-90 16 -155.5 43.5t-117.5 75t-78 122t-26 177.5z" />
<glyph unicode="%" horiz-adv-x="2029" d="M51 1018q0 52 3 91.5t13 83.5t27 76t46 62.5t69.5 49.5t99 30.5t131.5 11.5q86 0 151 -14t106.5 -43t68.5 -63t40.5 -84t18 -95t4.5 -106q0 -52 -3 -91.5t-12.5 -84t-26.5 -76.5t-46 -62.5t-69.5 -49.5t-99 -30.5t-132.5 -11.5q-102 0 -174.5 22t-113.5 56.5t-64.5 91 t-30 109t-6.5 127.5zM356 956q0 -8 0.5 -24.5t2 -22.5t4 -17.5t7 -15.5t11 -11t15 -9t19.5 -4t25 -2t25.5 2t20.5 4t15 9t10.5 10.5t7.5 15.5t4.5 17.5t2 22.5t0.5 25v30v32v32v29.5t-0.5 24.5t-2 22.5t-4.5 17.5t-7.5 16t-10.5 11t-15 9t-20.5 4t-25.5 2t-25 -2t-19.5 -4 t-15 -9t-11 -11t-7 -16t-4 -18t-2 -22.5t-0.5 -24.5v-29.5v-31.5v-32v-30zM582 57l604 1393l258 -88l-604 -1395zM1200 383q0 52 3 91.5t13 83.5t27 76t46 62.5t69.5 49.5t99 30.5t131.5 11.5t131.5 -11.5t99 -30.5t69.5 -49.5t46 -62.5t27 -76t13 -83.5t3 -91.5 q0 -75 -6.5 -127.5t-30 -109t-64.5 -91t-113.5 -56.5t-174.5 -22t-174.5 22t-113.5 56.5t-64.5 91t-30 109t-6.5 127.5zM1505 321q0 -8 0.5 -24.5t2 -22.5t4 -17.5t7 -15.5t11 -11t15 -9t19.5 -4t25 -2q16 0 28 1.5t21 7t15.5 9t10 15t6 17.5t3 23.5t1 26.5t0 32.5 t-0.5 35.5t0.5 35t0 32t-1 26.5t-3 23.5t-6 17.5t-10 15.5t-15.5 9.5t-21 7t-28 1.5q-14 0 -25 -2t-19.5 -4t-15 -9t-11 -11t-7 -16t-4 -18t-2 -22.5t-0.5 -24.5v-29.5v-31.5v-32v-30z" />
<glyph unicode="&#x26;" horiz-adv-x="1439" d="M68 389q0 222 225 385q-121 143 -121 275q0 185 113 277.5t327 92.5q206 0 323.5 -88t117.5 -262q0 -118 -57 -198.5t-179 -159.5l137 -119q15 26 88 180l324 -141q-79 -175 -158 -293l183 -168l-271 -225l-159 149q-81 -58 -177 -86t-229 -28q-128 0 -223 29.5 t-152 84.5t-84.5 128.5t-27.5 166.5zM459 393q0 -43 25 -69.5t69 -26.5q104 0 174 33l-207 196q-61 -47 -61 -133zM537 1055q0 -23 13.5 -45.5t45.5 -59.5q84 43 84 113q0 43 -68 43q-36 0 -55.5 -14t-19.5 -37z" />
<glyph unicode="'" horiz-adv-x="526" d="M111.5 1334q-0.5 15 1.5 31.5t3 23.5t8 15t12 10t18 4.5t24 2.5h33h102h33.5t24.5 -3t18 -4.5t11 -10.5t7 -15.5t2.5 -24t0.5 -31t-2 -42.5l-13 -344q-2 -34 -14 -40.5t-78 -6.5h-78q-51 0 -68.5 3t-24 11.5t-7.5 34.5l-12 344q-1 27 -1.5 42z" />
<glyph unicode="(" horiz-adv-x="698" d="M78 614q0 304 91.5 558.5t236.5 433.5l309 -113q-131 -198 -196.5 -403.5t-65.5 -475.5q0 -269 66 -479t196 -407l-309 -103q-144 178 -236 433.5t-92 555.5z" />
<glyph unicode=")" horiz-adv-x="698" d="M-18 -272q130 193 195 403.5t65 482.5q0 273 -64.5 478.5t-195.5 400.5l311 113q144 -178 234.5 -432.5t90.5 -559.5q0 -306 -90 -558.5t-235 -430.5z" />
<glyph unicode="*" horiz-adv-x="1003" d="M25.5 1043.5q-1.5 16.5 23.5 95.5q26 76 37 88.5t43 3.5l55 -23l219 -90l-20 234q-2 25 -2 59t14 39.5t94 5.5q85 0 99 -5.5t14 -39.5v-59l-22 -234l219 90q9 4 21.5 9.5t21 8.5t14.5 5q14 4 21 4.5t14.5 -2t13.5 -15t12.5 -29t18.5 -50.5q25 -86 21 -101q-5 -12 -33 -20 q-39 -11 -58 -14l-229 -52l156 -178q33 -41 34 -43q20 -28 11.5 -41.5t-74.5 -60.5q-70 -51 -82 -55q-14 -4 -28 17q-2 3 -5 9q-21 21 -37 47l-123 199l-118 -199q-6 -10 -13 -19t-14.5 -17.5t-9.5 -10.5q-17 -29 -30.5 -26t-73.5 47q-7 5 -11 8q-66 47 -74.5 60.5 t11.5 41.5l37 43l155 178l-231 52q-19 3 -58 14q-32 9 -33.5 25.5z" />
<glyph unicode="+" horiz-adv-x="1044" d="M104 440v279h275v270h285v-270h276v-279h-276v-270h-285v270h-275z" />
<glyph unicode="," horiz-adv-x="573" d="M82 -152q0 24 16 64l37 88q6 8 6 27q0 11 -4 14q-45 29 -45 152q0 46 1.5 72t8.5 53t19.5 40.5t35 25t55.5 15.5t81 4t81 -4t55.5 -15.5t35 -25t19.5 -40.5t8.5 -53t1.5 -72v-54q0 -29 -1 -43.5t-6.5 -37.5t-17.5 -48l-96 -215q-16 -34 -40 -43.5t-67 -9.5q-26 0 -82 22 q-69 29 -85.5 43t-16.5 41z" />
<glyph unicode="-" horiz-adv-x="755" d="M61 393v330h633v-330h-633z" />
<glyph unicode="." horiz-adv-x="573" d="M86 193q0 46 1.5 72t8.5 53t19.5 40.5t35 25t55.5 15.5t81 4t81 -4t55.5 -15.5t35 -25t19 -41t8 -53t1.5 -71.5t-1.5 -72t-8 -53.5t-19 -40.5t-35 -25t-55.5 -16t-81 -4q-41 0 -71 3.5t-52 9.5t-36 20t-22.5 27.5t-13 39t-5.5 49t-1 62.5z" />
<glyph unicode="/" horiz-adv-x="1089" d="M74 -111l635 1547l305 -121l-633 -1546z" />
<glyph unicode="0" d="M82 602v191q0 61 1.5 103.5t7.5 99.5t16.5 97t30 87.5t47 80t69 64.5t94 51t123.5 31t156 12q109 0 194 -19.5t141 -49.5t96 -81.5t61.5 -98.5t33 -119t14 -125t2.5 -133v-191q0 -61 -1.5 -104t-7 -100t-16 -97t-30 -87.5t-47 -80t-69 -64.5t-93.5 -51t-122.5 -31 t-155.5 -12t-156 12t-123.5 31t-94 51t-69 64.5t-47 80t-30 87.5t-16.5 97t-7.5 100t-1.5 104zM475 596q0 -143 4 -172q10 -87 68 -112q31 -13 80 -13q32 0 56.5 6t40.5 17t27 27.5t16.5 38t8 47t2.5 55.5v64v42v201v42v65t-2.5 54.5t-8 48.5t-16.5 35.5t-27 29.5 t-40.5 15.5t-56.5 6.5q-38 0 -65 -8t-43.5 -22.5t-26 -36.5t-13 -50t-4.5 -62t0 -74v-44v-201z" />
<glyph unicode="1" d="M168 1202l391 199h318v-1079h247v-322h-882v322h250v655l-230 -105z" />
<glyph unicode="2" d="M135 1331q132 53 237 72.5t242 19.5q258 0 374 -97t116 -288q0 -143 -50.5 -252t-164.5 -231q-82 -88 -227 -233h448v-322h-954v305q301 285 387 371q102 103 134 171t32 163q0 84 -125 84q-162 0 -410 -88z" />
<glyph unicode="3" d="M123 51l35 316q114 -40 203 -59t188 -19q101 0 132.5 27t31.5 94v34q0 57 -36.5 79t-121.5 22h-283v319h244q71 0 106 15t44.5 39.5t9.5 72.5v29q0 52 -29.5 72t-116.5 20q-73 0 -154 -20t-202 -62l-35 320q123 37 212 54t204 17q261 0 385.5 -88.5t124.5 -277.5v-35 q0 -93 -29.5 -174.5t-83.5 -110.5q76 -40 115 -116t39 -173v-22q0 -220 -128.5 -333.5t-416.5 -113.5q-228 0 -438 74z" />
<glyph unicode="4" d="M23 231v324l606 846h424v-840h178v-330h-178v-231h-387v231h-643zM432 561h234v361z" />
<glyph unicode="5" d="M125 49l45 328q210 -76 383 -76q95 0 126.5 28.5t31.5 106.5v19q0 81 -35.5 106t-155.5 25q-101 0 -246 -19h-92l31 834h829v-328h-481l-10 -178q37 4 59 4q105 0 182 -10t132 -34t90 -56.5t55 -84.5t27.5 -111t7.5 -142v-41q0 -225 -130 -334t-417 -109q-216 0 -432 72z " />
<glyph unicode="6" d="M106 604v137q0 170 30 292t98.5 211.5t184.5 133t283 43.5q131 0 373 -37l-26 -319q-141 29 -297 29q-57 0 -94 -2.5t-69 -10.5t-50 -21t-30.5 -35.5t-17 -52.5t-4.5 -73v-2q101 16 228 16q226 0 330 -108t104 -354q0 -474 -526 -474q-100 0 -179 19t-132.5 50t-92 80.5 t-60 99.5t-34 118.5t-16 126t-3.5 133.5zM485 559q0 -154 26 -209t114 -55q74 0 106.5 37t32.5 127q0 79 -20.5 105t-69.5 26q-100 0 -189 -25v-6z" />
<glyph unicode="7" d="M147 1075v326h996v-281l-500 -1120h-412l492 1075h-576z" />
<glyph unicode="8" d="M92 444q0 100 29 168t98 121q-18 16 -32.5 34.5t-23.5 33.5t-15.5 36.5t-10 33.5t-5 36.5t-2 34t0 36.5t0.5 34q0 150 46 237.5t153.5 129.5t294.5 42q186 0 294.5 -42t155.5 -128.5t47 -234.5q0 -109 -16.5 -169t-75.5 -114q71 -53 100 -120t29 -167q0 -106 -13.5 -178 t-47 -130.5t-94.5 -92t-153.5 -51t-225.5 -17.5t-226 18.5t-153 53t-94 94t-47 130t-13 171.5zM477 442q0 -97 29.5 -126t118.5 -29q25 0 44 2t34 4.5t25.5 9t18 11.5t12.5 17t7.5 20t4 26t1.5 29.5v35.5q0 40 -7.5 55.5t-37.5 26.5t-106 21q-74 -10 -103 -21t-35 -26 t-6 -56zM505 1040q0 -6 0.5 -21t0.5 -20q0 -85 20 -110.5t101 -34.5q25 3 43 7t31 9.5t21 12t12.5 15t6 19.5t2.5 25t0 30v21q0 9 0.5 25.5t0.5 23.5t-1.5 19.5t-6 18t-13 13.5t-21.5 11t-32 5.5t-45 2.5q-25 0 -44.5 -3t-32 -6.5t-21 -12t-13 -14t-7 -18t-2.5 -18.5z" />
<glyph unicode="9" d="M106 948q0 473 525 473q100 0 179 -19t132.5 -50t92.5 -80.5t60.5 -99t34 -118t16 -126t3.5 -133.5v-138q0 -170 -30 -292.5t-98.5 -211.5t-184.5 -132.5t-283 -43.5q-161 0 -375 37l29 320q139 -29 297 -29q85 0 131.5 6.5t78.5 28t42 58t10 100.5v2q-92 -15 -225 -15 q-227 0 -331 108.5t-104 354.5zM489 938q0 -79 21.5 -105t71.5 -26q104 0 186 27v6q0 155 -25.5 208.5t-113.5 53.5q-75 0 -107.5 -36.5t-32.5 -127.5z" />
<glyph unicode=":" horiz-adv-x="575" d="M86 193q0 46 1.5 72t8.5 53t19.5 40.5t35 25t55.5 15.5t81 4t81 -4t55.5 -15.5t35 -25t19 -41t8 -53t1.5 -71.5t-1.5 -72t-8 -53.5t-19 -40.5t-35 -25t-55.5 -16t-81 -4q-41 0 -71 3.5t-52 9.5t-36 20t-22.5 27.5t-13 39t-5.5 49t-1 62.5zM86 823q0 39 1 62.5t5.5 49 t13 39t22.5 27.5t36 20t52 9.5t71 3.5q48 0 81 -4t55.5 -16t35 -25t19 -40.5t8 -53.5t1.5 -72t-1.5 -72t-8 -53.5t-19 -40.5t-35 -25t-55.5 -16t-81 -4q-41 0 -71 3.5t-52 9.5t-36 20t-22.5 27.5t-13 39t-5.5 49t-1 62.5z" />
<glyph unicode=";" horiz-adv-x="575" d="M82 -152q0 24 16 64l37 88q6 8 6 27q0 11 -4 14q-45 29 -45 152q0 46 1.5 72t8.5 53t19.5 40.5t35 25t55.5 15.5t81 4t81 -4t55.5 -15.5t35 -25t19.5 -40.5t8.5 -53t1.5 -72v-54q0 -29 -1 -43.5t-6.5 -37.5t-17.5 -48l-96 -215q-16 -34 -40 -43.5t-67 -9.5q-26 0 -82 22 q-69 29 -85.5 43t-16.5 41zM86 823q0 39 1 62.5t5.5 49t13 39t22.5 27.5t36 20t52 9.5t71 3.5q48 0 81 -4t55.5 -16t35 -25t19 -40.5t8 -53.5t1.5 -72t-1.5 -72t-8 -53.5t-19 -40.5t-35 -25t-55.5 -16t-81 -4q-41 0 -71 3.5t-52 9.5t-36 20t-22.5 27.5t-13 39t-5.5 49 t-1 62.5z" />
<glyph unicode="&#x3c;" horiz-adv-x="1044" d="M104 471v213l689 401l141 -243l-473 -262l473 -269l-141 -241z" />
<glyph unicode="=" horiz-adv-x="1044" d="M104 238v260h836v-260h-836zM104 662v260h836v-260h-836z" />
<glyph unicode="&#x3e;" horiz-adv-x="1044" d="M111 311l473 264l-473 267l141 243l688 -401v-213l-688 -401z" />
<glyph unicode="?" horiz-adv-x="1064" d="M63 1352q214 61 424 61q272 0 390 -87t118 -273q0 -209 -129 -324q-9 -8 -40 -34.5t-46 -39.5t-44 -41.5t-48 -51t-42 -55.5t-42 -67l-307 97q15 60 53 123t60.5 89t62.5 70q10 12 43 46.5t45.5 50t26.5 41t14 47.5q0 36 -34.5 63t-110.5 27q-145 0 -359 -68zM264 193 q0 45 2 71.5t8.5 53.5t19.5 40.5t36 25t56 15.5t81 4t81 -4t55.5 -15.5t35 -25t19.5 -40.5t8.5 -53t1.5 -72q0 -39 -1 -62.5t-5.5 -49t-13 -39t-22.5 -27.5t-36 -20t-52 -9.5t-71 -3.5q-48 0 -81 4t-56 15.5t-36 25.5t-19.5 41t-8.5 53.5t-2 71.5z" />
<glyph unicode="@" horiz-adv-x="1853" d="M74 592q0 194 53 346t160.5 261t278 166.5t397.5 57.5q168 0 303 -35.5t228 -100t155 -156.5t90 -201t28 -238q0 -87 -12.5 -162t-43 -145t-78.5 -119t-123.5 -78.5t-172.5 -29.5q-94 0 -181 38.5t-122 96.5q-56 -58 -119 -84.5t-114 -26.5q-84 0 -141.5 17t-88 50.5 t-43 75t-12.5 99.5q0 84 20 207t62 213q54 97 153.5 136.5t268.5 39.5q42 0 164.5 -4t158.5 -4l-63 -480q-9 -41 -6.5 -68.5t5.5 -43t15 -23.5t21.5 -10t25.5 -2q36 0 59 10.5t44 43t31 101t10 175.5q0 104 -25 184t-82.5 145t-162 99.5t-252.5 34.5q-322 0 -458 -140.5 t-136 -459.5q0 -284 162 -413.5t489 -129.5q189 0 342 16l29 -237q-212 -29 -377 -29q-220 0 -392 49t-295 147t-188 252.5t-65 358.5zM807 479q0 -39 17 -52t63 -13q56 0 84 6l51 375q-14 2 -33 2q-74 0 -107 -19.5t-44 -64.5q-13 -49 -22 -131t-9 -103z" />
<glyph unicode="A" horiz-adv-x="1337" d="M-14 0l454 1401h469l439 -1401h-418l-64 256h-399l-72 -256h-409zM555 573h219l-104 420z" />
<glyph unicode="B" horiz-adv-x="1222" d="M111 0v1401h526q94 0 168 -10.5t125.5 -27.5t89 -44.5t59 -57t34 -70t16.5 -77t4 -84.5q0 -112 -33 -179t-111 -114q56 -21 95 -60t59.5 -93t29.5 -112t9 -130q0 -58 -22.5 -115t-69 -109.5t-131 -85t-195.5 -32.5h-653zM508 311h141q79 0 109 19t30 86q0 65 -9 92.5 t-28.5 35t-66.5 7.5h-176v-240zM508 852h143q35 0 56 7.5t30 25t11 34t2 46.5q0 28 -0.5 40t-6 31.5t-16 28t-32.5 15.5t-54 7h-133v-235z" />
<glyph unicode="C" horiz-adv-x="1153" d="M82 608v185q0 84 6 151.5t22.5 134.5t44.5 117.5t72.5 94.5t105.5 72t145.5 44t189.5 16q228 0 428 -55l-41 -340q-198 53 -383 53q-44 0 -71.5 -5t-52 -21.5t-37.5 -48t-20.5 -82.5t-7.5 -127v-195q0 -50 1 -79t5 -64t12 -54t22 -39t35 -29.5t51 -15.5t71 -6 q169 0 381 54l43 -338q-203 -54 -422 -54q-119 0 -210.5 16t-154.5 42t-107 72t-69 92.5t-38.5 119t-17 134.5t-3.5 155z" />
<glyph unicode="D" horiz-adv-x="1288" d="M111 0v1401h542q109 0 194 -18.5t142 -47t98 -78t63 -95t34.5 -116t16 -123t5.5 -132.5v-183q0 -121 -8.5 -205t-32.5 -156t-63.5 -116t-103.5 -75t-150 -43.5t-207 -12.5h-530zM508 336h115q33 0 53 1t41 5.5t32.5 11.5t23 22t16.5 33.5t9.5 49t5.5 66.5t1 87v181 q0 66 -2 105.5t-9 73t-17.5 49.5t-32 27.5t-47 14t-68.5 2.5h-121v-729z" />
<glyph unicode="E" horiz-adv-x="1134" d="M111 0v1401h944v-336h-547v-176h481v-336h-481v-217h547v-336h-944z" />
<glyph unicode="F" horiz-adv-x="1073" d="M111 0v1401h923v-336h-526v-201h473v-336h-473v-528h-397z" />
<glyph unicode="G" horiz-adv-x="1261" d="M82 608v183q0 82 4.5 144.5t19 131.5t40 118.5t68.5 97t103 76.5t146 46.5t194 17.5q255 0 480 -49l-37 -340q-174 47 -410 47q-48 0 -83.5 -8t-58 -27.5t-36 -40.5t-20 -58t-8 -68t-1.5 -82v-193q0 -62 3 -103t13.5 -80t30 -60.5t52.5 -34.5t80 -13q11 0 37 0.5t47 0.5 t36 -1v127h-84v336h461v-749q-248 -50 -508 -50q-104 0 -188 18t-142.5 48.5t-102 78t-69.5 99t-41.5 118.5t-20.5 129.5t-5 139.5z" />
<glyph unicode="H" horiz-adv-x="1372" d="M111 0v1401h397v-529h356v529h398v-1401h-398v537h-356v-537h-397z" />
<glyph unicode="I" horiz-adv-x="632" d="M119 0v1401h397v-1401h-397z" />
<glyph unicode="J" horiz-adv-x="706" d="M-25 295q59 17 95 29t64.5 29.5t41.5 31.5t21.5 41.5t10 52.5t1.5 72v850h397v-852q0 -79 -3.5 -139t-21.5 -110.5t-27 -83t-49.5 -65t-58.5 -48.5t-84.5 -41.5t-96.5 -35.5t-124 -39q-33 -11 -51 -16z" />
<glyph unicode="K" horiz-adv-x="1396" d="M111 0v1401h397v-660l373 660h460l-421 -680l469 -721h-478l-403 649v-649h-397z" />
<glyph unicode="L" horiz-adv-x="1034" d="M111 0v1401h397v-1059h496v-342h-893z" />
<glyph unicode="M" horiz-adv-x="1632" d="M72 0l47 1401h387l309 -725l309 725h387l48 -1401h-402l-16 573l-183 -372h-288l-183 372l-14 -573h-401z" />
<glyph unicode="N" horiz-adv-x="1433" d="M111 0v1401h436l387 -750v750h391v-1401h-438l-391 707v-707h-385z" />
<glyph unicode="O" horiz-adv-x="1355" d="M80 608v185q0 72 4 128.5t19 124.5t40 119.5t70 102t107 83t153 52.5t205 20t205 -20t153 -52.5t107 -83t70 -102t40 -119.5t19 -124.5t4 -128.5v-185q0 -72 -4 -128.5t-19 -125t-40 -119.5t-70 -102t-107 -83.5t-153 -52.5t-205 -20t-205 20t-153 52.5t-107 83.5 t-70 102t-40 119.5t-19 125t-4 128.5zM481 604q0 -69 3 -110t14 -80t32.5 -58.5t57.5 -31t90 -11.5q45 0 77 6.5t53.5 24t34 37.5t19 57t8.5 72.5t2 93.5v191q0 50 -1.5 82t-5.5 66t-12.5 54.5t-22.5 39.5t-35 28.5t-49.5 15.5t-67.5 6q-54 0 -90 -11.5t-57.5 -30.5 t-32.5 -58.5t-14 -80.5t-3 -111v-191z" />
<glyph unicode="P" horiz-adv-x="1241" d="M111 0v1401h641q71 0 129.5 -9t102 -23.5t78 -40t57 -50t38.5 -62t24.5 -69t13.5 -77.5t6 -79.5t1 -83.5q0 -122 -23.5 -211t-76.5 -154t-142 -97.5t-215 -32.5h-237v-412h-397zM508 743h176q75 0 98 32t23 132q0 83 -9 106q-16 42 -89 50q-23 2 -54 2h-145v-322z" />
<glyph unicode="Q" horiz-adv-x="1355" d="M80 608v185q0 72 4 128.5t19 124.5t40 119.5t70 102t107 83t153 52.5t205 20t205 -20t153 -52.5t107 -83t70 -102t40 -119.5t19 -124.5t4 -128.5v-185q0 -62 -3 -112t-14 -110t-28.5 -107t-49.5 -95.5t-74.5 -83.5t-105.5 -63.5t-141 -42.5q6 -43 19.5 -55.5t42.5 -12.5 q61 0 172 27l53 -283q-165 -39 -295 -39q-81 0 -131 15t-84.5 55.5t-50.5 107.5t-21 175q-92 9 -166 34.5t-124 59.5t-86.5 84t-57 98.5t-32.5 112t-15.5 116t-3.5 119.5zM481 604q0 -69 3 -110t14 -80t32.5 -58.5t57.5 -31t90 -11.5q45 0 77 6.5t53.5 24t34 37.5t19 57 t8.5 72.5t2 93.5v191q0 50 -1.5 82t-5.5 66t-12.5 54.5t-22.5 39.5t-35 28.5t-49.5 15.5t-67.5 6q-54 0 -90 -11.5t-57.5 -30.5t-32.5 -58.5t-14 -80.5t-3 -111v-191z" />
<glyph unicode="R" horiz-adv-x="1302" d="M111 0v1401h532q115 0 199 -10t146 -34.5t101 -59.5t63 -91.5t33 -123.5t9 -162q0 -175 -49.5 -285t-159.5 -156l307 -479h-456l-287 442h-41v-442h-397zM508 776h160q82 0 105.5 25.5t23.5 118.5q0 33 -1.5 51.5t-8 39t-20 30.5t-37 17t-58.5 7h-164v-289z" />
<glyph unicode="S" horiz-adv-x="1124" d="M59 1028q0 206 124 300.5t401 94.5q229 0 450 -41l-30 -356q-250 61 -420 61q-76 0 -99.5 -13.5t-23.5 -53.5q0 -60 43 -84t174 -53q94 -22 156.5 -45t115 -57.5t82 -81.5t45 -114t15.5 -159q0 -111 -25.5 -190.5t-70 -129.5t-119 -79t-159 -39.5t-202.5 -10.5 q-252 0 -453 68l41 332q214 -68 418 -68q28 0 51 2t39.5 3.5t29.5 8t21 9.5t13.5 13.5t8 14.5t4 18t1.5 19v23q0 54 -45 79.5t-174 53.5q-94 22 -153.5 42.5t-113.5 55.5t-83 83.5t-45.5 120.5t-16.5 173z" />
<glyph unicode="T" horiz-adv-x="1105" d="M23 1065v336h1060v-336h-331v-1065h-400v1065h-329z" />
<glyph unicode="U" horiz-adv-x="1341" d="M100 496v905h398v-877q0 -113 35 -155.5t137 -42.5q103 0 136.5 42t33.5 156v877h399v-905q0 -90 -18 -165.5t-59.5 -142t-106 -112.5t-162.5 -72.5t-223 -26.5t-223 26.5t-162.5 72.5t-106.5 112.5t-60 142t-18 165.5z" />
<glyph unicode="V" horiz-adv-x="1333" d="M-23 1401h433l260 -1006l274 1006h414l-445 -1401h-518z" />
<glyph unicode="W" horiz-adv-x="1921" d="M-8 1401h399l158 -815l190 815h445l192 -807l154 807h401l-319 -1401h-430l-221 881l-211 -881h-435z" />
<glyph unicode="X" horiz-adv-x="1298" d="M-4 0l416 731l-383 670h438l176 -324l180 324h428l-372 -660l421 -741h-434l-219 391l-221 -391h-430z" />
<glyph unicode="Y" horiz-adv-x="1214" d="M-25 1401h428l209 -488l215 488h410l-430 -918v-483h-397v483z" />
<glyph unicode="Z" horiz-adv-x="1196" d="M76 0v301l559 778h-535v322h1012v-301l-565 -781h561v-319h-1032z" />
<glyph unicode="[" horiz-adv-x="694" d="M123 -381v2048h584v-278h-218v-1493h218v-277h-584z" />
<glyph unicode="\" horiz-adv-x="1087" d="M57 1315l308 121l630 -1547l-309 -120z" />
<glyph unicode="]" horiz-adv-x="694" d="M-10 -104h215v1493h-215v278h581v-2048h-581v277z" />
<glyph unicode="^" horiz-adv-x="1044" d="M27 825l399 609h192l402 -609l-266 -49l-232 354l-233 -354z" />
<glyph unicode="_" horiz-adv-x="1044" d="M-2 -92h1049v-238h-1049v238z" />
<glyph unicode="`" horiz-adv-x="696" d="M53 1307l17 264l462 -232l-59 -215z" />
<glyph unicode="a" horiz-adv-x="1089" d="M70 287q0 98 20.5 160t71.5 98t124.5 49.5t192.5 13.5q86 0 131 -2v10q0 23 -0.5 33t-3 28t-8 26t-16 19t-26.5 16t-39.5 8.5t-55.5 3.5q-160 0 -309 -45l-23 284q73 21 189 36t235 15q91 0 155.5 -8t115.5 -29t82.5 -53t52 -84t28.5 -117t8 -157v-592h-327l-29 70 q-160 -90 -301 -90q-131 0 -199.5 86t-68.5 221zM438 317q0 -75 51 -75q58 0 121 34v119q-5 1 -11 1t-9 0.5t-7 0.5t-3 0q-99 0 -120.5 -11.5t-21.5 -68.5z" />
<glyph unicode="b" horiz-adv-x="1161" d="M104 4v1415l390 35v-446q109 32 245 32q54 0 98.5 -9.5t78.5 -25.5t61 -42t45.5 -54t31.5 -66t21 -73.5t12 -82t5.5 -86t1.5 -89.5q0 -129 -20.5 -221t-59 -153t-102.5 -96.5t-143.5 -50t-190.5 -14.5q-201 0 -474 27zM494 287q20 -2 53 -2q48 0 75.5 6t46.5 17.5 t27 41.5t10.5 63.5t2.5 98.5q0 61 -1.5 92.5t-8 61.5t-20.5 41.5t-36 18.5t-59 7q-19 0 -49 -6.5t-41 -7.5v-432z" />
<glyph unicode="c" horiz-adv-x="884" d="M59 512q0 141 21 235t75.5 164t150.5 101.5t243 31.5q121 0 297 -28l-35 -305q-105 30 -231 30q-39 0 -64.5 -10t-40 -25t-21.5 -48t-8.5 -62t-1.5 -84q0 -51 1.5 -78t8.5 -61.5t21 -50.5t40 -27.5t65 -11.5q89 0 237 36l39 -307q-192 -32 -317 -32q-115 0 -198.5 23.5 t-137.5 65.5t-86.5 109.5t-45 147t-12.5 186.5z" />
<glyph unicode="d" horiz-adv-x="1177" d="M63 512q0 84 9.5 154t36.5 142t71 121.5t119 81t174 31.5q113 0 207 -22v399l389 35v-1454h-326l-24 43q-97 -59 -266 -59q-105 0 -181 36.5t-121.5 106.5t-66.5 165t-21 220zM449 512q0 -48 2 -79t8 -62.5t17.5 -49.5t31 -29t47.5 -11q43 0 71 7.5t54 30.5v396 q-51 14 -98 14q-37 0 -62.5 -12t-39 -29t-21 -49t-9 -58t-1.5 -69z" />
<glyph unicode="e" horiz-adv-x="1071" d="M68 487q0 69 4.5 123.5t17 114t34 104t58.5 86t87 68t121.5 42t160.5 15.5q236 0 337 -119t101 -360v-178h-538q1 -66 35.5 -89.5t109.5 -23.5q155 0 362 54l29 -289q-238 -58 -444 -58q-253 0 -364 128.5t-111 381.5zM451 606h192q0 79 -20.5 113.5t-71.5 34.5 q-26 0 -45.5 -8.5t-29.5 -20.5t-16 -30.5t-7.5 -33t-1.5 -32.5v-23z" />
<glyph unicode="f" horiz-adv-x="774" d="M20 698v312h136v96q0 169 94.5 254.5t306.5 85.5q107 0 250 -21l-23 -303q-84 19 -135 19q-62 0 -84 -28t-22 -75v-28h213v-312h-213v-698h-387v698h-136z" />
<glyph unicode="g" horiz-adv-x="1161" d="M66 512q0 148 24.5 244t85.5 162t162.5 94t257.5 28q178 0 457 -26v-1073q0 -186 -120 -273.5t-392 -87.5q-241 0 -451 53l27 299q203 -55 393 -55q100 0 127 13.5t27 68.5v43q-121 -31 -228 -31q-81 0 -141.5 16.5t-100.5 51.5t-66 78.5t-39 109t-18 130.5t-5 155z M451 434q0 -18 1.5 -45.5t4.5 -38t9 -27t14.5 -22t21.5 -12.5t29.5 -8.5t39.5 -1.5q35 0 93 16v442h-7q-8 0 -19 -1q-16 -3 -24 -3q-25 0 -44.5 -1.5t-35.5 -7t-27.5 -10t-20.5 -16t-15 -18.5t-10 -25t-6 -28t-3 -34t-1 -37.5v-43.5v-20v-58z" />
<glyph unicode="h" horiz-adv-x="1169" d="M104 0v1419l385 35v-512q191 98 340 98q132 0 188 -83.5t56 -245.5v-711h-387v590q0 47 -14 67.5t-49 20.5q-48 0 -129 -45v-633h-390z" />
<glyph unicode="i" horiz-adv-x="616" d="M106 1278q0 45 1.5 70t8.5 52t19 40t34.5 24t55 15t80.5 4t81 -4t55.5 -15t35 -24t19.5 -40t8.5 -52t1.5 -70t-1.5 -70.5t-8.5 -52t-19.5 -39.5t-35 -24.5t-55.5 -15t-81 -3.5q-57 0 -93 7t-58 19t-32 39.5t-13 56.5t-3 83zM115 0v1024h387v-1024h-387z" />
<glyph unicode="j" horiz-adv-x="616" d="M-78 -135q126 52 159.5 83t33.5 103v973h387v-1053q0 -48 -2 -79.5t-12 -63.5t-21.5 -51.5t-39.5 -42t-56.5 -37t-82 -35t-106.5 -37t-139 -41.5zM106 1278q0 45 1.5 70t8.5 52t19 40t34.5 24t55 15t80.5 4t81 -4t55.5 -15t35 -24t19.5 -40t8.5 -52t1.5 -70t-1.5 -70.5 t-8.5 -52t-19.5 -39.5t-35 -24.5t-55.5 -15t-81 -3.5q-57 0 -93 7t-58 19t-32 39.5t-13 56.5t-3 83z" />
<glyph unicode="k" horiz-adv-x="1245" d="M104 0v1419l390 35v-891l280 461h438l-309 -479l330 -545h-442l-297 520v-520h-390z" />
<glyph unicode="l" horiz-adv-x="647" d="M106 274v1145l388 35v-1124q0 -29 30 -29q39 0 86 14l58 -282q-154 -53 -316 -53q-84 0 -130 11t-73.5 46.5t-35 87.5t-7.5 149z" />
<glyph unicode="m" horiz-adv-x="1738" d="M104 0v1024h312l43 -100q189 110 358 110q129 0 203 -121q194 121 375 121q118 0 182.5 -94t64.5 -248v-692h-387v590q0 84 -63 84q-25 0 -61 -13.5t-64 -31.5v-629h-387v590q0 84 -66 84q-44 0 -120 -45v-629h-390z" />
<glyph unicode="n" horiz-adv-x="1169" d="M104 0v1024h310l43 -92q191 106 372 106q132 0 188 -83.5t56 -245.5v-709h-387v584q0 50 -14 71t-49 21q-41 0 -129 -45v-631h-390z" />
<glyph unicode="o" horiz-adv-x="1136" d="M63 512q0 91 13.5 166t48 145t90.5 117t146 75.5t208 28.5t207.5 -28.5t145 -75.5t89.5 -117t47 -144.5t13 -166.5t-13 -166.5t-47 -144t-89.5 -116.5t-145 -75t-207.5 -28t-208 28.5t-146 75.5t-90.5 117t-48 144t-13.5 165zM449 467.5q0 -12.5 2 -43t6.5 -44.5 t13 -36.5t21 -33t32 -19t45.5 -8.5q24 0 43 6.5t31 18t20.5 27.5t12 34.5t6 39t2.5 41.5v42v20v20q0 33 -0.5 50t-3 46t-10 45t-19.5 34t-33 26t-49 8q-26 0 -45.5 -8.5t-32 -19t-21 -33t-13 -37t-6.5 -45t-2 -42.5v-44v-44.5z" />
<glyph unicode="p" horiz-adv-x="1163" d="M104 -430v1454h314l31 -49q103 59 249 59q97 0 168.5 -26t115.5 -70t70.5 -112t36 -142.5t9.5 -171.5q0 -70 -4.5 -126t-16 -113t-30.5 -100t-50.5 -81t-74 -62.5t-101.5 -38.5t-133 -14q-105 0 -194 19v-391zM494 297q38 -10 94 -10q22 0 39.5 3.5t30.5 8t22.5 14 t16 17.5t11 23t6.5 25.5t3 30.5t1 31.5t-0.5 35t-0.5 36.5q0 136 -21 175.5t-98 39.5q-66 0 -104 -25v-405z" />
<glyph unicode="q" horiz-adv-x="1157" d="M61 512q0 288 125.5 408t409.5 120q178 0 457 -26v-1409l-389 -35v440q-128 -33 -230 -33q-70 0 -125 13.5t-94 36.5t-67 61t-44.5 79.5t-26.5 100t-13 114.5t-3 130zM451 512q0 -48 0.5 -70.5t2.5 -53.5t6.5 -43.5t12.5 -28t21 -20.5t30.5 -9t42.5 -4q54 0 97 16v432 q-20 2 -50 2q-29 0 -51 -2t-39.5 -8.5t-29 -14t-20 -22t-13 -28.5t-7 -39t-3 -47.5t-0.5 -59.5z" />
<glyph unicode="r" horiz-adv-x="792" d="M106 0v1024h324l39 -98q46 43 131 74.5t158 39.5v-344q-8 -2 -43.5 -10.5t-60 -15t-58 -18t-60 -25.5t-44.5 -31v-596h-386z" />
<glyph unicode="s" horiz-adv-x="958" d="M47 33l53 282q66 -18 170.5 -32.5t190.5 -14.5q88 0 88 41q0 13 -6.5 19.5t-34 15t-92.5 23.5q-75 18 -128 36.5t-91.5 41.5t-61.5 47.5t-36.5 59.5t-18 71.5t-4.5 89.5q0 176 97 251.5t335 75.5q202 0 356 -34l-33 -279q-148 37 -278 37q-69 0 -96 -6t-27 -25 q0 -18 17.5 -25.5t97.5 -25.5q82 -17 140 -35.5t98 -43t64 -49.5t37 -63t17 -75.5t4 -93.5q0 -345 -409 -345q-89 0 -223.5 16.5t-225.5 39.5z" />
<glyph unicode="t" horiz-adv-x="813" d="M23 717v307h122v258l387 35v-293h232v-307h-232v-357q0 -43 14.5 -58t49.5 -15q65 0 141 32l21 -307q-134 -32 -287 -32q-326 0 -326 294v443h-122z" />
<glyph unicode="u" horiz-adv-x="1171" d="M98 309v715h387v-594q0 -46 14.5 -67t49.5 -21q54 0 129 43v639h387v-1024h-307l-37 80q-180 -100 -363 -100q-260 0 -260 329z" />
<glyph unicode="v" horiz-adv-x="1159" d="M-10 1024h391l197 -625l204 625h387l-378 -1024h-433z" />
<glyph unicode="w" horiz-adv-x="1515" d="M8 1024h367l90 -510l127 369h334l125 -369l88 510h366l-229 -1024h-369l-153 475l-148 -475h-368z" />
<glyph unicode="x" horiz-adv-x="1124" d="M14 0l344 516l-338 508h404l137 -215l144 215h395l-340 -498l350 -526h-405l-144 225l-145 -225h-402z" />
<glyph unicode="y" horiz-adv-x="1136" d="M-12 1024h393l194 -600l179 600h395l-522 -1430h-375l147 396z" />
<glyph unicode="z" horiz-adv-x="964" d="M66 725v299h833v-297l-375 -428h389v-299h-843v301l364 424h-368z" />
<glyph unicode="{" horiz-adv-x="757" d="M51 451v258q26 2 44 5t33 7t24 10t16 14t9.5 19t5 25.5t1.5 32.5t0 41v26v274q0 78 13.5 139t37 104t61 74t78 49.5t97.5 29t109 14.5t122 4v-264q-39 -2 -67 -9t-45 -20t-27.5 -25.5t-15 -35.5t-5.5 -40t-1 -48v-318q0 -92 -49 -147.5t-138 -91.5q187 -69 187 -236v-317 q0 -27 0.5 -41.5t3.5 -35.5t9.5 -32.5t18 -25.5t28.5 -22t42.5 -14t58.5 -8v-264q-70 0 -122 4t-109 14.5t-97.5 29t-78 49.5t-61 74t-37 104t-13.5 139v274v26v41.5t-1.5 31.5t-4.5 26.5t-10 18.5t-16 15t-24 9.5t-33 8t-44 4.5z" />
<glyph unicode="|" horiz-adv-x="514" d="M127 -422v1901h260v-1901h-260z" />
<glyph unicode="}" horiz-adv-x="757" d="M51 -154q39 2 67.5 9t46 20t28 26t15.5 36t6 40t1 48v317q0 92 49 148t137 92q-186 68 -186 235v318q0 26 -0.5 41t-4 36t-9.5 32.5t-18 25.5t-29.5 21.5t-43 13.5t-59.5 8v264q70 0 122 -4t109 -14.5t97.5 -29t78 -49.5t61 -74t37 -104t13.5 -139v-274q0 -100 6 -122 q10 -35 54 -47q25 -7 73 -11v-258q-21 -2 -36.5 -4t-29 -5t-22.5 -7t-16.5 -9.5t-12 -12t-8.5 -15.5t-5 -19.5t-2.5 -23.5t-0.5 -29t0 -34v-22v-274q0 -78 -13.5 -139t-37 -104t-61 -74t-78 -49.5t-97.5 -29t-109 -14.5t-122 -4v264z" />
<glyph unicode="~" horiz-adv-x="1044" d="M63 602q51 85 129 135.5t168 50.5q55 0 118.5 -25.5t119.5 -51t92 -25.5q61 0 110 28t79 68l100 -239q-48 -80 -124 -127t-171 -47q-48 0 -98 16.5t-84.5 35.5t-73.5 35.5t-66 16.5q-60 0 -106.5 -30t-93.5 -81z" />
<glyph unicode="&#xa1;" horiz-adv-x="626" d="M182 -367l8 574l41 340h304l45 -340l4 -574h-402zM182 831q0 39 1 62.5t5 49t13 39t23 27.5t36.5 20t52.5 9.5t72 3.5q41 0 71 -3.5t52 -9.5t36 -20t22.5 -27.5t13 -39t5.5 -49t1 -62.5q0 -46 -1.5 -72t-8.5 -53t-19.5 -40.5t-35 -25t-55.5 -15.5t-81 -4q-49 0 -82 4 t-56 15.5t-36 25t-19.5 41t-8 53t-1.5 71.5z" />
<glyph unicode="&#xa2;" horiz-adv-x="919" d="M59 709q0 129 17.5 218t61.5 157.5t121.5 105t195.5 47.5v172h219v-174q102 -12 172 -23l-35 -305q-108 31 -231 31q-39 0 -64.5 -10t-40 -25t-21.5 -48t-8.5 -62t-1.5 -84q0 -43 1 -66t4.5 -54.5t12.5 -47.5t23.5 -32.5t38 -23t56.5 -6.5q85 0 237 37l39 -307 q-121 -21 -182 -27v-194h-219v190q-94 8 -163 36t-113.5 72t-71.5 109.5t-37.5 140.5t-10.5 173z" />
<glyph unicode="&#xa3;" d="M137 270l86 29q43 37 60.5 79.5t17.5 125.5q0 28 -6 65h-152v279h109q1 26 -2.5 77t-3.5 70q0 408 497 408q197 0 426 -70l-41 -303q-190 66 -383 66q-67 0 -94.5 -31.5t-27.5 -89.5q0 -25 1 -67t1 -60h381l-41 -279h-301v-18q0 -89 -68 -254h580l10 -297h-692 q-142 0 -342 -16z" />
<glyph unicode="&#xa4;" d="M100 254l119 131q-55 94 -55 240q0 130 59 239l-123 133l168 191l135 -137q101 55 224 55q119 0 223 -55l127 131l176 -181l-123 -137q62 -102 62 -239t-64 -240q59 -64 125 -131l-176 -182l-129 131q-113 -60 -221 -60q-128 0 -221 60q-67 -63 -130 -131zM451 625 q0 -79 50.5 -136t123.5 -57q74 0 125 57t51 136q0 80 -51.5 137t-124.5 57t-123.5 -57t-50.5 -137z" />
<glyph unicode="&#xa5;" d="M4 1401h424l205 -488l207 488h411l-235 -500h127v-246h-246l-35 -80h281v-241h-320v-334h-393v334h-319v241h276l-33 80h-243v246h125z" />
<glyph unicode="&#xa6;" horiz-adv-x="514" d="M127 373h260v-785h-260v785zM127 696v785h260v-785h-260z" />
<glyph unicode="&#xa7;" horiz-adv-x="1159" d="M100 532q0 138 115 250q-90 93 -90 240q0 87 25.5 157t80.5 125.5t151.5 86t229.5 30.5q175 0 414 -84l-35 -319q-235 96 -379 96q-143 0 -143 -90q0 -35 60.5 -73t205.5 -89q70 -23 124.5 -52t103 -71t74.5 -101.5t26 -133.5q0 -130 -115 -242q105 -97 105 -262 q0 -64 -15 -121.5t-52 -111.5t-92 -93t-141.5 -62.5t-195.5 -23.5q-209 0 -434 93l27 321q243 -106 403 -106q89 0 123.5 23t34.5 77q0 38 -62 75.5t-221 98.5q-72 29 -124.5 58.5t-102 72.5t-75.5 101t-26 130zM434 557q0 -33 57 -68.5t189 -85.5q49 40 49 72 q-3 44 -53.5 76t-183.5 82q-58 -52 -58 -76z" />
<glyph unicode="&#xa8;" horiz-adv-x="696" d="M-68 1315q0 58 4 86t21.5 51.5t52 31t96.5 7.5q42 0 70 -3t47.5 -13t30.5 -21t16.5 -34t7 -44.5t1.5 -60.5t-1.5 -60.5t-7 -45t-16.5 -34.5t-30.5 -21t-47.5 -13.5t-70 -3.5t-70 3.5t-48 13.5t-30.5 21t-16.5 34t-7.5 45.5t-1.5 60.5zM416 1315q0 58 4 86t21.5 51.5 t51.5 31t95 7.5q63 0 97.5 -7.5t52.5 -31t22 -51.5t4 -86q0 -38 -1.5 -60.5t-7.5 -45.5t-17 -34t-31 -21t-48.5 -13.5t-70.5 -3.5q-49 0 -80 6.5t-50 17t-28 34.5t-11.5 49t-2.5 71z" />
<glyph unicode="&#xa9;" horiz-adv-x="1607" d="M70 700q0 160 47 292t137.5 228.5t231 149.5t319.5 53q236 0 403.5 -93t249.5 -254.5t82 -375.5t-82 -375.5t-249.5 -254.5t-403.5 -93q-179 0 -319.5 53t-231 149.5t-137.5 228.5t-47 292zM324 700q0 -477 481 -477q249 0 365 125.5t116 351.5q0 227 -116 353.5 t-365 126.5q-250 0 -365.5 -126.5t-115.5 -353.5zM465 702v23q0 91 17 154.5t58.5 110.5t114 69t179.5 22q132 0 217 -26l-25 -217q-109 32 -192 32q-47 0 -74 -22.5t-27 -85.5v-62t1.5 -48t4 -40t8 -28t13 -22.5t19.5 -12.5t27 -8.5t36 -1.5q90 0 188 28l25 -213 q-82 -30 -213 -30q-79 0 -140 12t-100.5 27.5t-66.5 48.5t-41 57.5t-20.5 73t-7.5 75.5t-1 84z" />
<glyph unicode="&#xaa;" horiz-adv-x="774" d="M68 954q0 66 15 107.5t54 66.5t96 35.5t150 12.5q26 0 59 -2v-9q0 53 -13.5 69.5t-55.5 16.5q-104 0 -252 -41l-15 191q54 20 133 31.5t138 11.5q171 0 243 -56t72 -204v-414h-209l-24 45q-105 -57 -203 -57q-56 0 -95 17.5t-58 48t-27 62t-8 68.5zM303 967q0 -22 26 -30 q10 -3 23 -3q32 0 46.5 3t43.5 15v60q-6 0 -14 1t-10 1q-69 0 -92 -9t-23 -38z" />
<glyph unicode="&#xab;" horiz-adv-x="1302" d="M94 438v121l314 379l225 -211l-191 -227l191 -228l-225 -211zM713 438v121l313 379l225 -211l-190 -227l190 -228l-225 -211z" />
<glyph unicode="&#xac;" horiz-adv-x="1028" d="M104 643v279h836v-623h-301v344h-535z" />
<glyph unicode="&#xad;" horiz-adv-x="755" d="M61 393v330h633v-330h-633z" />
<glyph unicode="&#xae;" horiz-adv-x="1282" d="M76 887q0 258 143 407.5t422 149.5q280 0 423.5 -149.5t143.5 -407.5q0 -127 -35 -229.5t-104 -177t-177.5 -114.5t-250.5 -40q-279 0 -422 150.5t-143 410.5zM283 887q0 -70 9.5 -123.5t33.5 -101.5t64 -78.5t103 -48t148 -17.5q106 0 178.5 26t112 76.5t56 114.5 t16.5 152q0 86 -16.5 149t-56 113.5t-112 76t-178.5 25.5t-177.5 -25.5t-110 -76t-54.5 -113t-16 -149.5zM412 608v563h276q96 0 136 -48t40 -134q0 -133 -84 -176l129 -205h-202l-115 183v-183h-180zM592 944h51h8q13 0 18.5 0.5t11.5 4t7.5 11.5t1.5 23t-1.5 23t-7.5 11.5 t-10 4t-18 0.5h-61v-78z" />
<glyph unicode="&#xaf;" horiz-adv-x="696" d="M49 1171v222h598v-222h-598z" />
<glyph unicode="&#xb0;" horiz-adv-x="733" d="M70 1114q0 121 83 204t214 83t214 -83t83 -204q0 -122 -83 -204.5t-214 -82.5q-133 0 -215 82.5t-82 204.5zM252 1114q0 -52 30.5 -86.5t84.5 -34.5q53 0 84.5 35t31.5 86q0 52 -30.5 86.5t-85.5 34.5q-56 0 -85.5 -34t-29.5 -87z" />
<glyph unicode="&#xb1;" horiz-adv-x="1044" d="M104 -2v278h836v-278h-836zM104 713v278h275v271h285v-271h276v-278h-276v-271h-285v271h-275z" />
<glyph unicode="&#xb2;" horiz-adv-x="892" d="M92 1350q99 39 172 52t172 13q184 0 267 -64.5t83 -191.5q0 -95 -31 -162t-91 -127q-70 -70 -162 -139h291v-242h-682v230q209 166 262 215q70 65 91 100.5t21 75.5q0 55 -75 55q-117 0 -277 -55z" />
<glyph unicode="&#xb3;" horiz-adv-x="892" d="M88 524l23 234q91 -27 150 -39t128 -12q63 0 79.5 10.5t16.5 38.5v30q0 22 -22 30.5t-76 8.5h-197v238h175q62 0 78 11t16 42v25q0 21 -17 30t-69 9q-87 0 -252 -56l-25 238q89 27 151.5 39t145.5 12q187 0 275 -60.5t88 -191.5v-26q0 -124 -68 -168q98 -58 98 -164v-53 q0 -127 -92.5 -201t-296.5 -74q-163 0 -309 49z" />
<glyph unicode="&#xb4;" horiz-adv-x="696" d="M164 1339l461 232l18 -264l-420 -183z" />
<glyph unicode="&#xb5;" horiz-adv-x="1171" d="M98 -430v1454h387v-594q0 -46 14.5 -67t49.5 -21q51 0 129 43v639h387v-1024h-307l-37 80q-123 -69 -248 -94q4 0 12 -4v-377z" />
<glyph unicode="&#xb6;" horiz-adv-x="1290" d="M51 993q0 198 124 303t347 105h692l-18 -184h-129v-1604l-215 -27v1631h-150v-1604l-213 -27v1014q-188 0 -313 114.5t-125 278.5z" />
<glyph unicode="&#xb7;" horiz-adv-x="575" d="M86 573q0 39 1 62.5t5.5 49t13 39t22.5 27.5t36 20t52 9.5t71 3.5q48 0 81 -4t55.5 -16t35 -25t19 -40.5t8 -53.5t1.5 -72t-1.5 -72t-8 -53.5t-19 -40.5t-35 -25t-55.5 -16t-81 -4q-41 0 -71 3.5t-52 9.5t-36 20t-22.5 27.5t-13 39t-5.5 49t-1 62.5z" />
<glyph unicode="&#xb8;" horiz-adv-x="696" d="M117 -403l39 178q90 -27 206 -27q8 0 9 3v13v15v6q0 8 -1.5 9t-12.5 1h-7q-23 0 -47 -6l-117 57l50 158h192l-14 -57q45 -4 72 -7.5t58.5 -12.5t47.5 -23.5t27.5 -39t11.5 -59.5v-77q0 -44 -12 -74t-30.5 -46.5t-56.5 -25t-73.5 -10.5t-98.5 -2q-90 0 -243 27z" />
<glyph unicode="&#xb9;" horiz-adv-x="892" d="M111 1266l280 135h244v-670h176v-242h-649v242h176v346l-154 -61z" />
<glyph unicode="&#xba;" horiz-adv-x="849" d="M80 1100q0 60 8 107.5t30.5 93.5t60 76t99.5 48.5t146 18.5t146 -18.5t100 -48.5t61 -76t31 -93.5t8 -107.5q0 -59 -8 -106.5t-31 -93t-61 -75.5t-100 -48.5t-146 -18.5t-146 18.5t-99.5 48.5t-60 75.5t-30.5 92.5t-8 107zM336 1100q0 -86 15 -114t73 -28q59 0 75.5 29 t16.5 113t-16.5 113.5t-75.5 29.5q-58 0 -73 -28.5t-15 -114.5z" />
<glyph unicode="&#xbb;" horiz-adv-x="1302" d="M109 272l190 228l-190 227l225 211l315 -379v-121l-315 -377zM727 272l191 228l-191 227l225 211l316 -379v-121l-316 -377z" />
<glyph unicode="&#xbc;" horiz-adv-x="2170" d="M111 1266l280 135h244v-670h176v-242h-649v242h176v346l-154 -61zM682 57l588 1391l260 -86l-594 -1393zM1290 119v243l420 549h324v-542h123v-250h-123v-119h-299v119h-445zM1593 369h142v194z" />
<glyph unicode="&#xbd;" horiz-adv-x="2170" d="M111 1266l280 135h244v-670h176v-242h-649v242h176v346l-154 -61zM682 57l588 1391l260 -86l-594 -1393zM1370 860q100 39 173 52.5t171 13.5q184 0 267 -64.5t83 -191.5q0 -95 -31 -162t-91 -127q-70 -70 -162 -139h291v-242h-682v229q209 166 262 215q70 65 91 100.5 t21 76.5q0 55 -75 55q-117 0 -277 -55z" />
<glyph unicode="&#xbe;" horiz-adv-x="2170" d="M88 524l23 234q91 -27 150 -39t128 -12q63 0 79.5 10.5t16.5 38.5v30q0 22 -22 30.5t-76 8.5h-197v238h175q62 0 78 11t16 42v25q0 21 -17 30t-69 9q-87 0 -252 -56l-25 238q89 27 151.5 39t145.5 12q187 0 275 -60.5t88 -191.5v-26q0 -124 -68 -168q98 -58 98 -164v-53 q0 -127 -92.5 -201t-296.5 -74q-163 0 -309 49zM662 57l587 1391l260 -86l-594 -1393zM1290 119v243l420 549h324v-542h123v-250h-123v-119h-299v119h-445zM1593 369h142v194z" />
<glyph unicode="&#xbf;" horiz-adv-x="1064" d="M197 -29q0 209 129 324q9 8 40 34.5t46 39.5t44 41.5t48 51t42 55.5t42 67l307 -97q-15 -60 -53 -123t-60.5 -89t-62.5 -70q-10 -12 -43 -46.5t-45.5 -50t-26.5 -41t-14 -47.5q0 -36 34.5 -63t110.5 -27q145 0 359 68l34 -326q-214 -61 -423 -61q-272 0 -390 87t-118 273 zM524 831q0 39 1 62.5t5.5 49t13 39t22.5 27.5t36 20t52 9.5t71 3.5q48 0 81 -4t56 -15.5t36 -25.5t19.5 -41t8.5 -53.5t2 -71.5t-2 -71.5t-8.5 -53.5t-19.5 -40.5t-36 -25t-56 -15.5t-81 -4t-81 4t-55.5 15.5t-35 25t-19.5 40.5t-8.5 53t-1.5 72z" />
<glyph unicode="&#xc0;" horiz-adv-x="1337" d="M-14 0l454 1401h469l439 -1401h-418l-64 256h-399l-72 -256h-409zM381 1653l16 264l463 -231l-59 -216zM555 573h219l-104 420z" />
<glyph unicode="&#xc1;" horiz-adv-x="1337" d="M-14 0l454 1401h469l439 -1401h-418l-64 256h-399l-72 -256h-409zM463 1686l461 231l18 -264l-420 -183zM555 573h219l-104 420z" />
<glyph unicode="&#xc2;" horiz-adv-x="1337" d="M-14 0l454 1401h469l439 -1401h-418l-64 256h-399l-72 -256h-409zM313 1657l342 246l355 -248l-66 -187l-289 156l-290 -158zM555 573h219l-104 420z" />
<glyph unicode="&#xc3;" horiz-adv-x="1337" d="M-14 0l454 1401h469l439 -1401h-418l-64 256h-399l-72 -256h-409zM297 1679q44 56 107.5 97t123.5 41q54 0 107 -19.5t95.5 -39t70.5 -19.5q45 0 82.5 21.5t58.5 60.5l82 -170q-27 -68 -90 -106t-139 -38q-43 -1 -81 11t-61.5 26.5t-54 26.5t-59.5 12t-63.5 -16.5 t-52 -29.5t-50.5 -40zM555 573h219l-104 420z" />
<glyph unicode="&#xc4;" horiz-adv-x="1337" d="M-14 0l454 1401h469l439 -1401h-418l-64 256h-399l-72 -256h-409zM248 1661q0 58 4 86t21.5 51.5t52 31t96.5 7.5q42 0 70 -3t47.5 -13t30 -21t16 -34t7 -44.5t1.5 -60.5t-1.5 -60.5t-7 -45t-16 -34.5t-30 -21t-48 -13.5t-69.5 -3.5q-42 0 -70 3.5t-48 13.5t-30.5 21 t-16.5 34t-7.5 45.5t-1.5 60.5zM555 573h219l-104 420zM731 1661q0 58 4 86t21.5 51.5t51.5 31t95 7.5q63 0 97.5 -7.5t52.5 -31t22 -51.5t4 -86q0 -38 -1.5 -60.5t-7.5 -45.5t-17 -34t-31 -21t-48.5 -13.5t-70.5 -3.5q-49 0 -80 6.5t-50 17t-28 34.5t-11.5 49t-2.5 71z" />
<glyph unicode="&#xc5;" horiz-adv-x="1337" d="M-14 0l454 1401h469l439 -1401h-418l-64 256h-399l-72 -256h-409zM422 1667q0 101 65 163t172 62q112 0 177 -61.5t65 -163.5q0 -101 -65.5 -163t-176.5 -62q-108 0 -172.5 60.5t-64.5 164.5zM555 573h219l-104 420zM582 1667q0 -82 77 -82q86 0 86 82q0 86 -86 86 q-77 0 -77 -86z" />
<glyph unicode="&#xc6;" horiz-adv-x="1875" d="M-14 0l559 1401h1251v-336h-622l18 -180h541v-336h-500l22 -213h541v-336h-901l-21 256h-378l-88 -256h-422zM610 573h221l-53 486z" />
<glyph unicode="&#xc7;" horiz-adv-x="1153" d="M82 608v185q0 84 6 151.5t22.5 134.5t44.5 117.5t72.5 94.5t105.5 72t145.5 44t189.5 16q228 0 428 -55l-41 -340q-198 53 -383 53q-44 0 -71.5 -5t-52 -21.5t-37.5 -48t-20.5 -82.5t-7.5 -127v-195q0 -50 1 -79t5 -64t12 -54t22 -39t35 -29.5t51 -15.5t71 -6 q169 0 381 54l43 -338q-182 -49 -383 -54l-6 -30q45 -4 72 -7.5t58.5 -12.5t47.5 -23.5t27.5 -39t11.5 -59.5v-77q0 -44 -12 -74t-30 -46.5t-56 -25t-73.5 -10.5t-98.5 -2q-91 0 -244 27l39 178q90 -27 207 -27q7 0 7.5 1t0.5 15v15v6q0 8 -1.5 9t-12.5 1h-7q-23 0 -47 -6 l-117 57l43 140q-69 7 -126 22t-100 34t-76.5 48.5t-57 59.5t-40 72.5t-26 81t-14.5 93.5t-6.5 101t-1.5 110z" />
<glyph unicode="&#xc8;" horiz-adv-x="1134" d="M111 0v1401h944v-336h-547v-176h481v-336h-481v-217h547v-336h-944zM283 1653l16 264l463 -231l-60 -216z" />
<glyph unicode="&#xc9;" horiz-adv-x="1134" d="M111 0v1401h944v-336h-547v-176h481v-336h-481v-217h547v-336h-944zM354 1686l461 231l19 -264l-420 -183z" />
<glyph unicode="&#xca;" horiz-adv-x="1134" d="M111 0v1401h944v-336h-547v-176h481v-336h-481v-217h547v-336h-944zM246 1657l342 246l354 -248l-65 -187l-289 156l-291 -158z" />
<glyph unicode="&#xcb;" horiz-adv-x="1134" d="M111 0v1401h944v-336h-547v-176h481v-336h-481v-217h547v-336h-944zM166 1661q0 58 4 86t21.5 51.5t52 31t96.5 7.5q42 0 70 -3t47.5 -13t30 -21t16 -34t7 -44.5t1.5 -60.5t-1.5 -60.5t-7 -45t-16 -34.5t-30 -21t-48 -13.5t-69.5 -3.5q-42 0 -70 3.5t-48 13.5t-30.5 21 t-16.5 34t-7.5 45.5t-1.5 60.5zM649 1661q0 58 4 86t21.5 51.5t51.5 31t95 7.5q63 0 97.5 -7.5t52.5 -31t22 -51.5t4 -86q0 -38 -1.5 -60.5t-7.5 -45.5t-17 -34t-31 -21t-48.5 -13.5t-70.5 -3.5q-49 0 -80 6.5t-50 17t-28 34.5t-11.5 49t-2.5 71z" />
<glyph unicode="&#xcc;" horiz-adv-x="632" d="M37 1653l16 264l463 -231l-59 -216zM119 0v1401h397v-1401h-397z" />
<glyph unicode="&#xcd;" horiz-adv-x="632" d="M119 0v1401h397v-1401h-397zM123 1686l461 231l18 -264l-420 -183z" />
<glyph unicode="&#xce;" horiz-adv-x="632" d="M-29 1657l342 246l355 -248l-66 -187l-289 156l-290 -158zM119 0v1401h397v-1401h-397z" />
<glyph unicode="&#xcf;" horiz-adv-x="632" d="M-96 1661q0 58 4 86t21.5 51.5t52 31t96.5 7.5q42 0 70 -3t47.5 -13t30 -21t16 -34t7 -44.5t1.5 -60.5t-1.5 -60.5t-7 -45t-16 -34.5t-30 -21t-48 -13.5t-69.5 -3.5q-42 0 -70 3.5t-48 13.5t-30.5 21t-16.5 34t-7.5 45.5t-1.5 60.5zM119 0v1401h397v-1401h-397zM387 1661 q0 58 4 86t21.5 51.5t51.5 31t95 7.5q63 0 97.5 -7.5t52.5 -31t22 -51.5t4 -86q0 -38 -1.5 -60.5t-7.5 -45.5t-17 -34t-31 -21t-48.5 -13.5t-70.5 -3.5q-49 0 -80 6.5t-50 17t-28 34.5t-11.5 49t-2.5 71z" />
<glyph unicode="&#xd0;" horiz-adv-x="1288" d="M-8 543v315h119v543h542q109 0 194 -18.5t142 -47t98 -78t63 -95t34.5 -116t16 -123t5.5 -132.5v-183q0 -121 -8.5 -205t-32.5 -156t-63.5 -116t-103.5 -75t-150 -43.5t-207 -12.5h-530v543h-119zM508 336h115q33 0 53 1t41 5.5t32.5 11.5t23 22t16.5 33.5t9.5 49 t5.5 66.5t1 87v181q0 66 -2 105.5t-9 73t-17.5 49.5t-32 27.5t-47 14t-68.5 2.5h-121v-207h178v-315h-178v-207z" />
<glyph unicode="&#xd1;" horiz-adv-x="1433" d="M111 0v1401h436l387 -750v750h391v-1401h-438l-391 707v-707h-385zM346 1679q44 56 108 97t124 41q54 0 107 -19.5t95 -39t70 -19.5q45 0 82.5 21.5t58.5 60.5l82 -170q-27 -68 -90 -106t-139 -38q-43 -1 -81 11t-61.5 26.5t-54 26.5t-59.5 12t-63.5 -16.5t-52 -29.5 t-50.5 -40z" />
<glyph unicode="&#xd2;" horiz-adv-x="1355" d="M80 608v185q0 72 4 128.5t19 124.5t40 119.5t70 102t107 83t153 52.5t205 20t205 -20t153 -52.5t107 -83t70 -102t40 -119.5t19 -124.5t4 -128.5v-185q0 -72 -4 -128.5t-19 -125t-40 -119.5t-70 -102t-107 -83.5t-153 -52.5t-205 -20t-205 20t-153 52.5t-107 83.5 t-70 102t-40 119.5t-19 125t-4 128.5zM391 1653l17 264l462 -231l-59 -216zM481 604q0 -69 3 -110t14 -80t32.5 -58.5t57.5 -31t90 -11.5q45 0 77 6.5t53.5 24t34 37.5t19 57t8.5 72.5t2 93.5v191q0 50 -1.5 82t-5.5 66t-12.5 54.5t-22.5 39.5t-35 28.5t-49.5 15.5t-67.5 6 q-54 0 -90 -11.5t-57.5 -30.5t-32.5 -58.5t-14 -80.5t-3 -111v-191z" />
<glyph unicode="&#xd3;" horiz-adv-x="1355" d="M80 608v185q0 72 4 128.5t19 124.5t40 119.5t70 102t107 83t153 52.5t205 20t205 -20t153 -52.5t107 -83t70 -102t40 -119.5t19 -124.5t4 -128.5v-185q0 -72 -4 -128.5t-19 -125t-40 -119.5t-70 -102t-107 -83.5t-153 -52.5t-205 -20t-205 20t-153 52.5t-107 83.5 t-70 102t-40 119.5t-19 125t-4 128.5zM473 1686l461 231l18 -264l-420 -183zM481 604q0 -69 3 -110t14 -80t32.5 -58.5t57.5 -31t90 -11.5q45 0 77 6.5t53.5 24t34 37.5t19 57t8.5 72.5t2 93.5v191q0 50 -1.5 82t-5.5 66t-12.5 54.5t-22.5 39.5t-35 28.5t-49.5 15.5t-67.5 6 q-54 0 -90 -11.5t-57.5 -30.5t-32.5 -58.5t-14 -80.5t-3 -111v-191z" />
<glyph unicode="&#xd4;" horiz-adv-x="1355" d="M80 608v185q0 72 4 128.5t19 124.5t40 119.5t70 102t107 83t153 52.5t205 20t205 -20t153 -52.5t107 -83t70 -102t40 -119.5t19 -124.5t4 -128.5v-185q0 -72 -4 -128.5t-19 -125t-40 -119.5t-70 -102t-107 -83.5t-153 -52.5t-205 -20t-205 20t-153 52.5t-107 83.5 t-70 102t-40 119.5t-19 125t-4 128.5zM324 1657l342 246l354 -248l-66 -187l-288 156l-291 -158zM481 604q0 -69 3 -110t14 -80t32.5 -58.5t57.5 -31t90 -11.5q45 0 77 6.5t53.5 24t34 37.5t19 57t8.5 72.5t2 93.5v191q0 50 -1.5 82t-5.5 66t-12.5 54.5t-22.5 39.5t-35 28.5 t-49.5 15.5t-67.5 6q-54 0 -90 -11.5t-57.5 -30.5t-32.5 -58.5t-14 -80.5t-3 -111v-191z" />
<glyph unicode="&#xd5;" horiz-adv-x="1355" d="M80 608v185q0 72 4 128.5t19 124.5t40 119.5t70 102t107 83t153 52.5t205 20t205 -20t153 -52.5t107 -83t70 -102t40 -119.5t19 -124.5t4 -128.5v-185q0 -72 -4 -128.5t-19 -125t-40 -119.5t-70 -102t-107 -83.5t-153 -52.5t-205 -20t-205 20t-153 52.5t-107 83.5 t-70 102t-40 119.5t-19 125t-4 128.5zM307 1679q44 56 108 97t124 41q54 0 107 -19.5t95 -39t70 -19.5q45 0 82.5 21.5t58.5 60.5l82 -170q-27 -68 -90 -106t-139 -38q-43 -1 -81 11t-61.5 26.5t-54 26.5t-59.5 12t-63.5 -16.5t-52 -29.5t-50.5 -40zM481 604q0 -69 3 -110 t14 -80t32.5 -58.5t57.5 -31t90 -11.5q45 0 77 6.5t53.5 24t34 37.5t19 57t8.5 72.5t2 93.5v191q0 50 -1.5 82t-5.5 66t-12.5 54.5t-22.5 39.5t-35 28.5t-49.5 15.5t-67.5 6q-54 0 -90 -11.5t-57.5 -30.5t-32.5 -58.5t-14 -80.5t-3 -111v-191z" />
<glyph unicode="&#xd6;" horiz-adv-x="1355" d="M80 608v185q0 72 4 128.5t19 124.5t40 119.5t70 102t107 83t153 52.5t205 20t205 -20t153 -52.5t107 -83t70 -102t40 -119.5t19 -124.5t4 -128.5v-185q0 -72 -4 -128.5t-19 -125t-40 -119.5t-70 -102t-107 -83.5t-153 -52.5t-205 -20t-205 20t-153 52.5t-107 83.5 t-70 102t-40 119.5t-19 125t-4 128.5zM254 1661q0 58 4 86t21.5 51.5t52 31t96.5 7.5q42 0 70 -3t47.5 -13t30 -21t16 -34t7 -44.5t1.5 -60.5t-1.5 -60.5t-7 -45t-16 -34.5t-30 -21t-48 -13.5t-69.5 -3.5q-42 0 -70 3.5t-48 13.5t-30.5 21t-16.5 34t-7.5 45.5t-1.5 60.5z M481 604q0 -69 3 -110t14 -80t32.5 -58.5t57.5 -31t90 -11.5q45 0 77 6.5t53.5 24t34 37.5t19 57t8.5 72.5t2 93.5v191q0 50 -1.5 82t-5.5 66t-12.5 54.5t-22.5 39.5t-35 28.5t-49.5 15.5t-67.5 6q-54 0 -90 -11.5t-57.5 -30.5t-32.5 -58.5t-14 -80.5t-3 -111v-191z M737 1661q0 58 4 86t21.5 51.5t51.5 31t95 7.5q63 0 97.5 -7.5t52.5 -31t22 -51.5t4 -86q0 -38 -1.5 -60.5t-7.5 -45.5t-17 -34t-31 -21t-48.5 -13.5t-70.5 -3.5q-49 0 -80 6.5t-50 17t-28 34.5t-11.5 49t-2.5 71z" />
<glyph unicode="&#xd7;" horiz-adv-x="1044" d="M102 373l217 211l-217 211l199 198l215 -213l219 213l205 -205l-217 -210l217 -211l-199 -201l-215 215l-219 -215z" />
<glyph unicode="&#xd8;" horiz-adv-x="1355" d="M80 608v185q0 72 4 128.5t19 124.5t40 119.5t70 102t107 83t153 52.5t205 20q160 0 266 -34l90 157l183 -100l-93 -162q90 -85 121 -207.5t31 -283.5v-185q0 -72 -4 -128.5t-19 -125t-40 -119.5t-70 -102t-107 -83.5t-153 -52.5t-205 -20q-156 0 -275 37l-84 -147 l-182 98l88 156q-86 85 -115.5 206.5t-29.5 280.5zM481 571l287 506q-42 10 -90 10q-54 0 -90 -11.5t-57.5 -30.5t-32.5 -58.5t-14 -80.5t-3 -111v-224zM580 326q41 -13 98 -13q45 0 77 6.5t53.5 24t34 37.5t19 57t8.5 72.5t2 93.5v236z" />
<glyph unicode="&#xd9;" horiz-adv-x="1341" d="M100 496v905h398v-877q0 -113 35 -155.5t137 -42.5q103 0 136.5 42t33.5 156v877h399v-905q0 -90 -18 -165.5t-59.5 -142t-106 -112.5t-162.5 -72.5t-223 -26.5t-223 26.5t-162.5 72.5t-106.5 112.5t-60 142t-18 165.5zM383 1653l16 264l463 -231l-59 -216z" />
<glyph unicode="&#xda;" horiz-adv-x="1341" d="M100 496v905h398v-877q0 -113 35 -155.5t137 -42.5q103 0 136.5 42t33.5 156v877h399v-905q0 -90 -18 -165.5t-59.5 -142t-106 -112.5t-162.5 -72.5t-223 -26.5t-223 26.5t-162.5 72.5t-106.5 112.5t-60 142t-18 165.5zM467 1686l461 231l18 -264l-420 -183z" />
<glyph unicode="&#xdb;" horiz-adv-x="1341" d="M100 496v905h398v-877q0 -113 35 -155.5t137 -42.5q103 0 136.5 42t33.5 156v877h399v-905q0 -90 -18 -165.5t-59.5 -142t-106 -112.5t-162.5 -72.5t-223 -26.5t-223 26.5t-162.5 72.5t-106.5 112.5t-60 142t-18 165.5zM315 1657l342 246l355 -248l-66 -187l-289 156 l-290 -158z" />
<glyph unicode="&#xdc;" horiz-adv-x="1341" d="M100 496v905h398v-877q0 -113 35 -155.5t137 -42.5q103 0 136.5 42t33.5 156v877h399v-905q0 -90 -18 -165.5t-59.5 -142t-106 -112.5t-162.5 -72.5t-223 -26.5t-223 26.5t-162.5 72.5t-106.5 112.5t-60 142t-18 165.5zM248 1661q0 58 4 86t21.5 51.5t52 31t96.5 7.5 q42 0 70 -3t47.5 -13t30 -21t16 -34t7 -44.5t1.5 -60.5t-1.5 -60.5t-7 -45t-16 -34.5t-30 -21t-48 -13.5t-69.5 -3.5q-42 0 -70 3.5t-48 13.5t-30.5 21t-16.5 34t-7.5 45.5t-1.5 60.5zM731 1661q0 58 4 86t21.5 51.5t51.5 31t95 7.5q63 0 97.5 -7.5t52.5 -31t22 -51.5t4 -86 q0 -38 -1.5 -60.5t-7.5 -45.5t-17 -34t-31 -21t-48.5 -13.5t-70.5 -3.5q-49 0 -80 6.5t-50 17t-28 34.5t-11.5 49t-2.5 71z" />
<glyph unicode="&#xdd;" horiz-adv-x="1214" d="M-25 1401h428l209 -488l215 488h410l-430 -918v-483h-397v483zM403 1686l461 231l19 -264l-420 -183z" />
<glyph unicode="&#xde;" horiz-adv-x="1241" d="M111 0v1401h397v-213h244q71 0 129.5 -9t102 -23.5t78 -39.5t57 -49.5t38.5 -62t24.5 -69t13.5 -77.5t6 -79.5t1 -84.5q0 -122 -23.5 -211t-76.5 -154t-142 -97.5t-215 -32.5h-237v-199h-397zM508 532h176q75 0 98 31.5t23 132.5q0 83 -9 105q-16 41 -87 48q-24 3 -56 3 h-145v-320z" />
<glyph unicode="&#xdf;" horiz-adv-x="1257" d="M102 0v1018q0 211 124.5 323.5t361.5 112.5q485 0 485 -358q0 -19 -2.5 -36.5t-4.5 -31t-9.5 -30t-10.5 -25t-14 -24t-14 -21t-17.5 -21t-16.5 -17.5l-18.5 -18.5l-17.5 -17.5q-28 -27 -40.5 -44t-13.5 -21.5t-1 -14.5q0 -7 4.5 -14.5t17 -17.5t26 -20.5t38.5 -30.5 t49 -40q110 -94 154.5 -164t44.5 -172q0 -178 -89.5 -258t-287.5 -80q-153 0 -299 41l43 285q121 -37 211 -37q39 0 61.5 13.5t22.5 33.5q0 16 -15.5 29.5t-66 46.5t-90.5 64q-45 35 -61 48t-43 38.5t-35.5 43t-16.5 44.5t-8 59q0 47 16 87.5t33.5 63t56.5 66.5 q43 46 58.5 63.5t27 41t11.5 49.5q0 43 -43.5 70.5t-110.5 27.5q-60 0 -86.5 -27.5t-26.5 -87.5v-1040h-387z" />
<glyph unicode="&#xe0;" horiz-adv-x="1089" d="M70 287q0 98 20.5 160t71.5 98t124.5 49.5t192.5 13.5q86 0 131 -2v10q0 23 -0.5 33t-3 28t-8 26t-16 19t-26.5 16t-39.5 8.5t-55.5 3.5q-160 0 -309 -45l-23 284q73 21 189 36t235 15q91 0 155.5 -8t115.5 -29t82.5 -53t52 -84t28.5 -117t8 -157v-592h-327l-29 70 q-160 -90 -301 -90q-131 0 -199.5 86t-68.5 221zM293 1307l16 264l463 -232l-59 -215zM438 317q0 -75 51 -75q58 0 121 34v119q-5 1 -11 1t-9 0.5t-7 0.5t-3 0q-99 0 -120.5 -11.5t-21.5 -68.5z" />
<glyph unicode="&#xe1;" horiz-adv-x="1089" d="M70 287q0 98 20.5 160t71.5 98t124.5 49.5t192.5 13.5q86 0 131 -2v10q0 23 -0.5 33t-3 28t-8 26t-16 19t-26.5 16t-39.5 8.5t-55.5 3.5q-160 0 -309 -45l-23 284q73 21 189 36t235 15q91 0 155.5 -8t115.5 -29t82.5 -53t52 -84t28.5 -117t8 -157v-592h-327l-29 70 q-160 -90 -301 -90q-131 0 -199.5 86t-68.5 221zM313 1339l461 232l19 -264l-420 -183zM438 317q0 -75 51 -75q58 0 121 34v119q-5 1 -11 1t-9 0.5t-7 0.5t-3 0q-99 0 -120.5 -11.5t-21.5 -68.5z" />
<glyph unicode="&#xe2;" horiz-adv-x="1089" d="M70 287q0 98 20.5 160t71.5 98t124.5 49.5t192.5 13.5q86 0 131 -2v10q0 23 -0.5 33t-3 28t-8 26t-16 19t-26.5 16t-39.5 8.5t-55.5 3.5q-160 0 -309 -45l-23 284q73 21 189 36t235 15q91 0 155.5 -8t115.5 -29t82.5 -53t52 -84t28.5 -117t8 -157v-592h-327l-29 70 q-160 -90 -301 -90q-131 0 -199.5 86t-68.5 221zM195 1311l342 245l354 -247l-66 -187l-288 156l-291 -158zM438 317q0 -75 51 -75q58 0 121 34v119q-5 1 -11 1t-9 0.5t-7 0.5t-3 0q-99 0 -120.5 -11.5t-21.5 -68.5z" />
<glyph unicode="&#xe3;" horiz-adv-x="1089" d="M70 287q0 98 20.5 160t71.5 98t124.5 49.5t192.5 13.5q86 0 131 -2v10q0 23 -0.5 33t-3 28t-8 26t-16 19t-26.5 16t-39.5 8.5t-55.5 3.5q-160 0 -309 -45l-23 284q73 21 189 36t235 15q91 0 155.5 -8t115.5 -29t82.5 -53t52 -84t28.5 -117t8 -157v-592h-327l-29 70 q-160 -90 -301 -90q-131 0 -199.5 86t-68.5 221zM178 1333q44 56 107.5 96.5t124.5 40.5q54 0 107 -19t95 -38.5t70 -19.5q45 0 82.5 21.5t58.5 60.5l82 -170q-27 -68 -90 -106t-139 -38q-43 -1 -81 11t-61.5 26.5t-54 26.5t-59.5 12t-63.5 -16.5t-52 -29.5t-50.5 -40z M438 317q0 -75 51 -75q58 0 121 34v119q-5 1 -11 1t-9 0.5t-7 0.5t-3 0q-99 0 -120.5 -11.5t-21.5 -68.5z" />
<glyph unicode="&#xe4;" horiz-adv-x="1089" d="M70 287q0 98 20.5 160t71.5 98t124.5 49.5t192.5 13.5q86 0 131 -2v10q0 23 -0.5 33t-3 28t-8 26t-16 19t-26.5 16t-39.5 8.5t-55.5 3.5q-160 0 -309 -45l-23 284q73 21 189 36t235 15q91 0 155.5 -8t115.5 -29t82.5 -53t52 -84t28.5 -117t8 -157v-592h-327l-29 70 q-160 -90 -301 -90q-131 0 -199.5 86t-68.5 221zM125 1315q0 58 4 86t21.5 51.5t52 31t96.5 7.5q42 0 70 -3t47.5 -13t30 -21t16 -34t7 -44.5t1.5 -60.5t-1.5 -60.5t-7 -45t-16 -34.5t-30 -21t-48 -13.5t-69.5 -3.5q-42 0 -70 3.5t-48 13.5t-30.5 21t-16.5 34t-7.5 45.5 t-1.5 60.5zM438 317q0 -75 51 -75q58 0 121 34v119q-5 1 -11 1t-9 0.5t-7 0.5t-3 0q-99 0 -120.5 -11.5t-21.5 -68.5zM608 1315q0 58 4 86t21.5 51.5t51.5 31t95 7.5q63 0 97.5 -7.5t52.5 -31t22 -51.5t4 -86q0 -38 -1.5 -60.5t-7.5 -45.5t-17 -34t-31 -21t-48.5 -13.5 t-70.5 -3.5q-49 0 -80 6.5t-50 17t-28 34.5t-11.5 49t-2.5 71z" />
<glyph unicode="&#xe5;" horiz-adv-x="1089" d="M70 287q0 98 20.5 160t71.5 98t124.5 49.5t192.5 13.5q86 0 131 -2v10q0 23 -0.5 33t-3 28t-8 26t-16 19t-26.5 16t-39.5 8.5t-55.5 3.5q-160 0 -309 -45l-23 284q73 21 189 36t235 15q91 0 155.5 -8t115.5 -29t82.5 -53t52 -84t28.5 -117t8 -157v-592h-327l-29 70 q-160 -90 -301 -90q-131 0 -199.5 86t-68.5 221zM301 1321q0 101 65.5 163t172.5 62q112 0 176.5 -61.5t64.5 -163.5q0 -101 -65 -163t-176 -62q-108 0 -173 60.5t-65 164.5zM438 317q0 -75 51 -75q58 0 121 34v119q-5 1 -11 1t-9 0.5t-7 0.5t-3 0q-99 0 -120.5 -11.5 t-21.5 -68.5zM461 1321q0 -82 78 -82q86 0 86 82q0 86 -86 86q-78 0 -78 -86z" />
<glyph unicode="&#xe6;" horiz-adv-x="1615" d="M70 285q0 79 14.5 133t45 92t86.5 59t130.5 30t185.5 9q27 0 78 -2v23q0 26 -0.5 36.5t-4.5 28.5t-12.5 24.5t-24.5 15.5t-41.5 11.5t-61.5 2.5q-145 0 -313 -43l-25 284q74 21 191.5 36t234.5 15q181 0 291 -41q135 41 254 41q91 0 160.5 -17.5t117.5 -53t80 -82 t50 -112t25 -134t7 -156.5v-104h-539q0 -65 34.5 -88t111.5 -23q65 0 131.5 8.5t107.5 18t121 29.5l29 -289q-230 -60 -444 -60q-218 0 -336 95q-105 -56 -186.5 -75.5t-200.5 -19.5q-136 0 -216.5 89t-80.5 219zM438 317q0 -75 51 -75q58 0 121 34v119q-5 1 -11 1t-9 0.5 t-7 0.5t-3 0q-99 0 -120.5 -11.5t-21.5 -68.5zM995 606h193q0 79 -20.5 113.5t-71.5 34.5q-101 0 -101 -125v-23z" />
<glyph unicode="&#xe7;" horiz-adv-x="884" d="M59 512q0 141 21 235t75.5 164t150.5 101.5t243 31.5q121 0 297 -28l-35 -305q-105 30 -231 30q-39 0 -64.5 -10t-40 -25t-21.5 -48t-8.5 -62t-1.5 -84q0 -51 1.5 -78t8.5 -61.5t21 -50.5t40 -27.5t65 -11.5q89 0 237 36l39 -307q-171 -27 -287 -32l-8 -33q45 -4 72 -7.5 t58.5 -12.5t47.5 -23.5t27.5 -39t11.5 -59.5v-77q0 -44 -12 -74t-30 -46.5t-56 -25t-73.5 -10.5t-98.5 -2q-91 0 -244 27l39 178q90 -27 207 -27q7 0 7.5 1t0.5 15v15q0 15 -1 15q-2 1 -19 1q-23 0 -47 -6l-117 57l45 148q-94 18 -157 60t-98.5 110t-50 151t-14.5 197z" />
<glyph unicode="&#xe8;" horiz-adv-x="1071" d="M68 487q0 69 4.5 123.5t17 114t34 104t58.5 86t87 68t121.5 42t160.5 15.5q236 0 337 -119t101 -360v-178h-538q1 -66 35.5 -89.5t109.5 -23.5q155 0 362 54l29 -289q-238 -58 -444 -58q-253 0 -364 128.5t-111 381.5zM250 1307l16 264l463 -232l-59 -215zM451 606h192 q0 79 -20.5 113.5t-71.5 34.5q-26 0 -45.5 -8.5t-29.5 -20.5t-16 -30.5t-7.5 -33t-1.5 -32.5v-23z" />
<glyph unicode="&#xe9;" horiz-adv-x="1071" d="M68 487q0 69 4.5 123.5t17 114t34 104t58.5 86t87 68t121.5 42t160.5 15.5q236 0 337 -119t101 -360v-178h-538q1 -66 35.5 -89.5t109.5 -23.5q155 0 362 54l29 -289q-238 -58 -444 -58q-253 0 -364 128.5t-111 381.5zM334 1339l461 232l18 -264l-420 -183zM451 606h192 q0 79 -20.5 113.5t-71.5 34.5q-26 0 -45.5 -8.5t-29.5 -20.5t-16 -30.5t-7.5 -33t-1.5 -32.5v-23z" />
<glyph unicode="&#xea;" horiz-adv-x="1071" d="M68 487q0 69 4.5 123.5t17 114t34 104t58.5 86t87 68t121.5 42t160.5 15.5q236 0 337 -119t101 -360v-178h-538q1 -66 35.5 -89.5t109.5 -23.5q155 0 362 54l29 -289q-238 -58 -444 -58q-253 0 -364 128.5t-111 381.5zM182 1311l342 245l355 -247l-66 -187l-289 156 l-291 -158zM451 606h192q0 79 -20.5 113.5t-71.5 34.5q-26 0 -45.5 -8.5t-29.5 -20.5t-16 -30.5t-7.5 -33t-1.5 -32.5v-23z" />
<glyph unicode="&#xeb;" horiz-adv-x="1071" d="M68 487q0 69 4.5 123.5t17 114t34 104t58.5 86t87 68t121.5 42t160.5 15.5q236 0 337 -119t101 -360v-178h-538q1 -66 35.5 -89.5t109.5 -23.5q155 0 362 54l29 -289q-238 -58 -444 -58q-253 0 -364 128.5t-111 381.5zM117 1315q0 58 4 86t21.5 51.5t52 31t96.5 7.5 q42 0 70 -3t47.5 -13t30 -21t16 -34t7 -44.5t1.5 -60.5t-1.5 -60.5t-7 -45t-16 -34.5t-30 -21t-48 -13.5t-69.5 -3.5q-42 0 -70 3.5t-48 13.5t-30.5 21t-16.5 34t-7.5 45.5t-1.5 60.5zM451 606h192q0 79 -20.5 113.5t-71.5 34.5q-26 0 -45.5 -8.5t-29.5 -20.5t-16 -30.5 t-7.5 -33t-1.5 -32.5v-23zM600 1315q0 58 4 86t21.5 51.5t51.5 31t95 7.5q63 0 97.5 -7.5t52.5 -31t22 -51.5t4 -86q0 -38 -1.5 -60.5t-7.5 -45.5t-17 -34t-31 -21t-48.5 -13.5t-70.5 -3.5q-49 0 -80 6.5t-50 17t-28 34.5t-11.5 49t-2.5 71z" />
<glyph unicode="&#xec;" horiz-adv-x="616" d="M31 1307l16 264l463 -232l-59 -215zM115 0v1024h387v-1024h-387z" />
<glyph unicode="&#xed;" horiz-adv-x="616" d="M115 0v1024h387v-1024h-387zM115 1339l460 232l19 -264l-420 -183z" />
<glyph unicode="&#xee;" horiz-adv-x="616" d="M-37 1311l342 245l354 -247l-65 -187l-289 156l-291 -158zM115 0v1024h387v-1024h-387z" />
<glyph unicode="&#xef;" horiz-adv-x="616" d="M-104 1315q0 58 4 86t21.5 51.5t52 31t96.5 7.5q42 0 70 -3t47.5 -13t30 -21t16 -34t7 -44.5t1.5 -60.5t-1.5 -60.5t-7 -45t-16 -34.5t-30 -21t-48 -13.5t-69.5 -3.5q-42 0 -70 3.5t-48 13.5t-30.5 21t-16.5 34t-7.5 45.5t-1.5 60.5zM115 0v1024h387v-1024h-387z M379 1315q0 58 4 86t21.5 51.5t51.5 31t95 7.5q63 0 97.5 -7.5t52.5 -31t22 -51.5t4 -86q0 -38 -1.5 -60.5t-7.5 -45.5t-17 -34t-31 -21t-48.5 -13.5t-70.5 -3.5q-49 0 -80 6.5t-50 17t-28 34.5t-11.5 49t-2.5 71z" />
<glyph unicode="&#xf0;" horiz-adv-x="1177" d="M63 469q0 119 33 199.5t100.5 125t154 62.5t208.5 18q24 0 47 -2q-12 101 -90 183l-154 -101l-83 115l122 80q-100 64 -229 111l270 147q141 -18 246 -70l109 70l90 -111l-70 -45q254 -226 254 -776q0 -117 -25 -205t-81.5 -155.5t-156 -102.5t-239.5 -35 q-116 0 -204.5 25t-145 67.5t-92.5 106t-50 134.5t-14 159zM449 426q0 -28 0.5 -41.5t6.5 -37t17.5 -35.5t34.5 -21.5t57 -9.5q35 0 59 9.5t35.5 21.5t17.5 35.5t6.5 37t0.5 41.5t-0.5 41t-6.5 36.5t-17.5 35t-35.5 21t-59 9.5q-34 0 -57 -9.5t-34.5 -21t-17.5 -34.5 t-6.5 -37t-0.5 -41z" />
<glyph unicode="&#xf1;" horiz-adv-x="1169" d="M104 0v1024h310l43 -92q191 106 372 106q132 0 188 -83.5t56 -245.5v-709h-387v584q0 50 -14 71t-49 21q-41 0 -129 -45v-631h-390zM217 1333q44 56 107.5 96.5t124.5 40.5q54 0 107 -19t95 -38.5t70 -19.5q45 0 82.5 21.5t58.5 60.5l82 -170q-27 -68 -90 -106t-139 -38 q-43 -1 -81 11t-61.5 26.5t-54 26.5t-59.5 12t-63.5 -16.5t-52 -29.5t-50.5 -40z" />
<glyph unicode="&#xf2;" horiz-adv-x="1136" d="M63 512q0 91 13.5 166t48 145t90.5 117t146 75.5t208 28.5t207.5 -28.5t145 -75.5t89.5 -117t47 -144.5t13 -166.5t-13 -166.5t-47 -144t-89.5 -116.5t-145 -75t-207.5 -28t-208 28.5t-146 75.5t-90.5 117t-48 144t-13.5 165zM285 1307l16 264l463 -232l-59 -215z M449 467.5q0 -12.5 2 -43t6.5 -44.5t13 -36.5t21 -33t32 -19t45.5 -8.5q24 0 43 6.5t31 18t20.5 27.5t12 34.5t6 39t2.5 41.5v42v20v20q0 33 -0.5 50t-3 46t-10 45t-19.5 34t-33 26t-49 8q-26 0 -45.5 -8.5t-32 -19t-21 -33t-13 -37t-6.5 -45t-2 -42.5v-44v-44.5z" />
<glyph unicode="&#xf3;" horiz-adv-x="1136" d="M63 512q0 91 13.5 166t48 145t90.5 117t146 75.5t208 28.5t207.5 -28.5t145 -75.5t89.5 -117t47 -144.5t13 -166.5t-13 -166.5t-47 -144t-89.5 -116.5t-145 -75t-207.5 -28t-208 28.5t-146 75.5t-90.5 117t-48 144t-13.5 165zM367 1339l460 232l19 -264l-420 -183z M449 467.5q0 -12.5 2 -43t6.5 -44.5t13 -36.5t21 -33t32 -19t45.5 -8.5q24 0 43 6.5t31 18t20.5 27.5t12 34.5t6 39t2.5 41.5v42v20v20q0 33 -0.5 50t-3 46t-10 45t-19.5 34t-33 26t-49 8q-26 0 -45.5 -8.5t-32 -19t-21 -33t-13 -37t-6.5 -45t-2 -42.5v-44v-44.5z" />
<glyph unicode="&#xf4;" horiz-adv-x="1136" d="M63 512q0 91 13.5 166t48 145t90.5 117t146 75.5t208 28.5t207.5 -28.5t145 -75.5t89.5 -117t47 -144.5t13 -166.5t-13 -166.5t-47 -144t-89.5 -116.5t-145 -75t-207.5 -28t-208 28.5t-146 75.5t-90.5 117t-48 144t-13.5 165zM217 1311l342 245l354 -247l-65 -187 l-289 156l-291 -158zM449 467.5q0 -12.5 2 -43t6.5 -44.5t13 -36.5t21 -33t32 -19t45.5 -8.5q24 0 43 6.5t31 18t20.5 27.5t12 34.5t6 39t2.5 41.5v42v20v20q0 33 -0.5 50t-3 46t-10 45t-19.5 34t-33 26t-49 8q-26 0 -45.5 -8.5t-32 -19t-21 -33t-13 -37t-6.5 -45t-2 -42.5 v-44v-44.5z" />
<glyph unicode="&#xf5;" horiz-adv-x="1136" d="M63 512q0 91 13.5 166t48 145t90.5 117t146 75.5t208 28.5t207.5 -28.5t145 -75.5t89.5 -117t47 -144.5t13 -166.5t-13 -166.5t-47 -144t-89.5 -116.5t-145 -75t-207.5 -28t-208 28.5t-146 75.5t-90.5 117t-48 144t-13.5 165zM201 1333q44 56 107.5 96.5t123.5 40.5 q54 0 107 -19t95.5 -38.5t70.5 -19.5q45 0 82.5 21.5t58.5 60.5l82 -170q-27 -68 -90.5 -106t-139.5 -38q-43 -1 -81 11t-61.5 26.5t-54 26.5t-59.5 12t-63.5 -16.5t-52 -29.5t-50.5 -40zM449 467.5q0 -12.5 2 -43t6.5 -44.5t13 -36.5t21 -33t32 -19t45.5 -8.5q24 0 43 6.5 t31 18t20.5 27.5t12 34.5t6 39t2.5 41.5v42v20v20q0 33 -0.5 50t-3 46t-10 45t-19.5 34t-33 26t-49 8q-26 0 -45.5 -8.5t-32 -19t-21 -33t-13 -37t-6.5 -45t-2 -42.5v-44v-44.5z" />
<glyph unicode="&#xf6;" horiz-adv-x="1136" d="M63 512q0 91 13.5 166t48 145t90.5 117t146 75.5t208 28.5t207.5 -28.5t145 -75.5t89.5 -117t47 -144.5t13 -166.5t-13 -166.5t-47 -144t-89.5 -116.5t-145 -75t-207.5 -28t-208 28.5t-146 75.5t-90.5 117t-48 144t-13.5 165zM147 1315q0 57 4 85.5t22 52t52.5 31 t96.5 7.5q42 0 70 -3t47.5 -13t30 -21t16 -34t7 -44.5t1.5 -60.5t-1.5 -60.5t-7 -45t-16 -34.5t-30 -21t-48 -13.5t-69.5 -3.5q-50 0 -81.5 6.5t-51 17t-28.5 34.5t-11.5 49t-2.5 71zM449 467.5q0 -12.5 2 -43t6.5 -44.5t13 -36.5t21 -33t32 -19t45.5 -8.5q24 0 43 6.5 t31 18t20.5 27.5t12 34.5t6 39t2.5 41.5v42v20v20q0 33 -0.5 50t-3 46t-10 45t-19.5 34t-33 26t-49 8q-26 0 -45.5 -8.5t-32 -19t-21 -33t-13 -37t-6.5 -45t-2 -42.5v-44v-44.5zM631 1315q0 58 4 86t21.5 51.5t51.5 31t95 7.5q63 0 97.5 -7.5t52.5 -31t22 -51.5t4 -86 q0 -38 -1.5 -60.5t-7.5 -45.5t-17 -34t-31 -21t-48.5 -13.5t-70.5 -3.5q-49 0 -80 6.5t-50 17t-28 34.5t-11.5 49t-2.5 71z" />
<glyph unicode="&#xf7;" horiz-adv-x="1044" d="M104 440v279h836v-279h-836zM360 184q0 53 4 79.5t20 48.5t48.5 29t89.5 7t89 -7t48 -29.5t19.5 -48t3.5 -79.5q0 -55 -3.5 -81t-19.5 -48.5t-48 -29.5t-89 -7t-89.5 7t-48.5 29.5t-20 49t-4 80.5zM360 977q0 53 4 79.5t20 48.5t48.5 29t89.5 7t89 -7t48 -29.5t19.5 -48 t3.5 -79.5q0 -55 -3.5 -81t-19.5 -48.5t-48 -29.5t-89 -7t-89.5 7t-48.5 29.5t-20 49t-4 80.5z" />
<glyph unicode="&#xf8;" horiz-adv-x="1136" d="M63 512q0 91 13.5 166t48 145t90.5 117t146 75.5t208 28.5q126 0 224 -32l71 114l127 -75l-69 -111q149 -127 149 -428q0 -92 -13 -166.5t-47 -144t-89.5 -116.5t-145 -75t-207.5 -28q-127 0 -225 32l-78 -125l-127 76l76 121q-152 127 -152 426zM449 461l169 270 q-23 10 -49 10t-45.5 -8.5t-32 -19t-21 -33t-13 -37t-6.5 -45t-2 -42.5v-44v-51zM518 293q23 -10 51 -10q24 0 43 6.5t31 18t20.5 27.5t12 34.5t6 39t2.5 41.5v42v20v45z" />
<glyph unicode="&#xf9;" horiz-adv-x="1171" d="M98 309v715h387v-594q0 -46 14.5 -67t49.5 -21q54 0 129 43v639h387v-1024h-307l-37 80q-180 -100 -363 -100q-260 0 -260 329zM301 1307l16 264l463 -232l-59 -215z" />
<glyph unicode="&#xfa;" horiz-adv-x="1171" d="M98 309v715h387v-594q0 -46 14.5 -67t49.5 -21q54 0 129 43v639h387v-1024h-307l-37 80q-180 -100 -363 -100q-260 0 -260 329zM383 1339l461 232l18 -264l-420 -183z" />
<glyph unicode="&#xfb;" horiz-adv-x="1171" d="M98 309v715h387v-594q0 -46 14.5 -67t49.5 -21q54 0 129 43v639h387v-1024h-307l-37 80q-180 -100 -363 -100q-260 0 -260 329zM233 1311l342 245l355 -247l-66 -187l-289 156l-290 -158z" />
<glyph unicode="&#xfc;" horiz-adv-x="1171" d="M98 309v715h387v-594q0 -46 14.5 -67t49.5 -21q54 0 129 43v639h387v-1024h-307l-37 80q-180 -100 -363 -100q-260 0 -260 329zM164 1315q0 58 4 86t21.5 51.5t52 31t96.5 7.5q42 0 70 -3t47.5 -13t30 -21t16 -34t7 -44.5t1.5 -60.5t-1.5 -60.5t-7 -45t-16 -34.5t-30 -21 t-48 -13.5t-69.5 -3.5q-42 0 -70 3.5t-48 13.5t-30.5 21t-16.5 34t-7.5 45.5t-1.5 60.5zM647 1315q0 58 4 86t21.5 51.5t51.5 31t95 7.5q63 0 97.5 -7.5t52.5 -31t22 -51.5t4 -86q0 -38 -1.5 -60.5t-7.5 -45.5t-17 -34t-31 -21t-48.5 -13.5t-70.5 -3.5q-49 0 -80 6.5t-50 17 t-28 34.5t-11.5 49t-2.5 71z" />
<glyph unicode="&#xfd;" horiz-adv-x="1136" d="M-12 1024h393l194 -600l179 600h395l-522 -1430h-375l147 396zM369 1339l460 232l19 -264l-420 -183z" />
<glyph unicode="&#xfe;" horiz-adv-x="1163" d="M104 -430v1849l385 35l5 -453q90 33 204 33q97 0 168.5 -26t115.5 -70t70.5 -112t36 -142.5t9.5 -171.5q0 -70 -4.5 -126t-16 -113t-30.5 -100t-50.5 -81t-74 -62.5t-101.5 -38.5t-133 -14q-105 0 -194 19v-391zM494 297q38 -10 94 -10q22 0 39.5 3.5t30.5 8t22.5 14 t16 17.5t11 23t6.5 25.5t3 30.5t1 31.5t-0.5 35t-0.5 36.5q0 136 -21 175.5t-98 39.5q-66 0 -104 -25v-405z" />
<glyph unicode="&#xff;" horiz-adv-x="1136" d="M-12 1024h393l194 -600l179 600h395l-522 -1430h-375l147 396zM152 1315q0 58 4 86t21.5 51.5t52 31t96.5 7.5q42 0 70 -3t47.5 -13t30 -21t16 -34t7 -44.5t1.5 -60.5t-1.5 -60.5t-7 -45t-16 -34.5t-30 -21t-48 -13.5t-69.5 -3.5q-42 0 -70 3.5t-48 13.5t-30.5 21 t-16.5 34t-7.5 45.5t-1.5 60.5zM635 1315q0 58 4 86t21.5 51.5t51.5 31t95 7.5q63 0 97.5 -7.5t52.5 -31t22 -51.5t4 -86q0 -38 -1.5 -60.5t-7.5 -45.5t-17 -34t-31 -21t-48.5 -13.5t-70.5 -3.5q-49 0 -80 6.5t-50 17t-28 34.5t-11.5 49t-2.5 71z" />
<glyph unicode="&#x152;" horiz-adv-x="1898" d="M80 602v191q0 118 16.5 211t57.5 173t105.5 133t163.5 83t230 30q33 0 85 -3.5t125 -9.5t116 -9h840v-336h-547v-180h483v-336h-483v-213h545v-336h-832q-42 -3 -112.5 -9t-124 -10t-95.5 -4q-106 0 -190.5 18t-143.5 48t-103 77t-69.5 97.5t-41 117.5t-20.5 128.5 t-5 138.5zM481 547q0 -18 1.5 -49t4.5 -46.5t9 -39t14.5 -35t21.5 -26.5t30 -21.5t40 -11.5t51 -5q34 0 70 2.5t80.5 7.5t68.5 7v741q-177 14 -219 14q-28 0 -51 -5.5t-40 -13.5t-30 -24t-21.5 -29t-14.5 -36.5t-9 -38.5t-4.5 -43.5t-1.5 -43v-45.5v-13v-191v-55z" />
<glyph unicode="&#x153;" horiz-adv-x="1691" d="M63 510q0 91 13.5 165t48 144t90.5 117t146 75.5t208 28.5q175 0 303 -67q119 67 299 67q234 0 337.5 -122t103.5 -357v-178h-541v-2q0 -60 35 -85.5t113 -25.5q93 0 171 13t189 41l29 -291q-218 -56 -445 -56q-182 0 -295 74q-123 -74 -299 -74q-118 0 -208 28.5 t-146 76t-90.5 117.5t-48 145t-13.5 166zM449 465.5q0 -12.5 2 -43t6.5 -44.5t13 -36.5t21 -33t32 -19t45.5 -8.5q28 0 48.5 8t33 26.5t19.5 34.5t10 46.5t3.5 46.5t0.5 50v17v16q0 32 -0.5 49t-3 46.5t-10 46.5t-19.5 35.5t-33 27t-49 8.5q-26 0 -45.5 -8.5t-32 -19.5 t-21 -33.5t-13 -37t-6.5 -45t-2 -42.5v-43v-44.5zM1067 606h193q0 78 -21 113t-72 35q-26 0 -45.5 -8.5t-29.5 -20.5t-16 -30.5t-7.5 -33t-1.5 -32.5v-23z" />
<glyph unicode="&#x178;" horiz-adv-x="1214" d="M-25 1401h428l209 -488l215 488h410l-430 -918v-483h-397v483zM188 1661q0 58 4 86t21.5 51.5t52 31t96.5 7.5q42 0 70 -3t47.5 -13t30.5 -21t16.5 -34t7 -44.5t1.5 -60.5t-1.5 -60.5t-7 -45t-16.5 -34.5t-30.5 -21t-47.5 -13.5t-70 -3.5t-70 3.5t-48 13.5t-30.5 21 t-16.5 34t-7.5 45.5t-1.5 60.5zM672 1661q0 58 4 86t21.5 51.5t51.5 31t95 7.5q63 0 97.5 -7.5t52.5 -31t22 -51.5t4 -86q0 -38 -1.5 -60.5t-7.5 -45.5t-17 -34t-31 -21t-48.5 -13.5t-70.5 -3.5q-49 0 -80 6.5t-50 17t-28 34.5t-11.5 49t-2.5 71z" />
<glyph unicode="&#x2c6;" horiz-adv-x="696" d="M-2 1311l342 245l354 -247l-65 -187l-289 156l-291 -158z" />
<glyph unicode="&#x2dc;" horiz-adv-x="694" d="M-18 1333q44 56 107.5 96.5t123.5 40.5q54 0 107 -19t95 -38.5t70 -19.5q45 0 83 21.5t59 60.5l82 -170q-27 -68 -90.5 -106t-139.5 -38q-43 -1 -81 11t-61.5 26.5t-54 26.5t-59.5 12t-63.5 -16.5t-52 -29.5t-50.5 -40z" />
<glyph unicode="&#x2000;" horiz-adv-x="958" />
<glyph unicode="&#x2001;" horiz-adv-x="1917" />
<glyph unicode="&#x2002;" horiz-adv-x="958" />
<glyph unicode="&#x2003;" horiz-adv-x="1917" />
<glyph unicode="&#x2004;" horiz-adv-x="639" />
<glyph unicode="&#x2005;" horiz-adv-x="479" />
<glyph unicode="&#x2006;" horiz-adv-x="319" />
<glyph unicode="&#x2007;" horiz-adv-x="319" />
<glyph unicode="&#x2008;" horiz-adv-x="239" />
<glyph unicode="&#x2009;" horiz-adv-x="383" />
<glyph unicode="&#x200a;" horiz-adv-x="106" />
<glyph unicode="&#x2010;" horiz-adv-x="755" d="M61 393v330h633v-330h-633z" />
<glyph unicode="&#x2011;" horiz-adv-x="755" d="M61 393v330h633v-330h-633z" />
<glyph unicode="&#x2012;" horiz-adv-x="755" d="M61 393v330h633v-330h-633z" />
<glyph unicode="&#x2013;" horiz-adv-x="1044" d="M-6 436v273h1057v-273h-1057z" />
<glyph unicode="&#x2014;" horiz-adv-x="1740" d="M-6 436v273h1757v-273h-1757z" />
<glyph unicode="&#x2018;" horiz-adv-x="573" d="M82 1004v53q0 31 0.5 44t6 36.5t17.5 48.5l97 215q16 33 40 43t64 10q29 0 84 -22q69 -29 86 -43t17 -39q0 -26 -17 -64l-39 -88q-6 -15 -6 -29q0 -10 6 -14q45 -29 45 -151q0 -46 -1.5 -72t-8 -53.5t-19 -40.5t-35 -25t-55.5 -16t-81 -4q-41 0 -71 3.5t-52 9.5t-36 20 t-22.5 27.5t-13 39t-5.5 49t-1 62.5z" />
<glyph unicode="&#x2019;" horiz-adv-x="573" d="M82 866q0 24 16 64l37 88q6 8 6 26q0 12 -4 15q-45 29 -45 151q0 39 1 62.5t5.5 49t13 39t22.5 27.5t36 20t52 9.5t71 3.5t71 -3.5t52 -9.5t36 -20t22.5 -27.5t13 -39t5.5 -49t1 -62.5v-53q0 -29 -1 -43.5t-6.5 -37.5t-17.5 -48l-96 -215q-16 -34 -40 -43.5t-67 -9.5 q-26 0 -82 22q-69 29 -85.5 43t-16.5 41z" />
<glyph unicode="&#x201a;" horiz-adv-x="573" d="M82 -152q0 24 16 64l37 88q6 8 6 27q0 11 -4 14q-45 29 -45 152q0 46 1.5 72t8.5 53t19.5 40.5t35 25t55.5 15.5t81 4t81 -4t55.5 -15.5t35 -25t19.5 -40.5t8.5 -53t1.5 -72v-54q0 -29 -1 -43.5t-6.5 -37.5t-17.5 -48l-96 -215q-16 -34 -40 -43.5t-67 -9.5q-26 0 -82 22 q-69 29 -85.5 43t-16.5 41z" />
<glyph unicode="&#x201c;" horiz-adv-x="1134" d="M82 1004v53q0 31 0.5 44t6 36.5t17.5 48.5l97 215q16 33 40 43t64 10q29 0 84 -22q69 -29 86 -43t17 -39q0 -26 -17 -64l-39 -88q-6 -15 -6 -29q0 -10 6 -14q45 -29 45 -151q0 -46 -1.5 -72t-8 -53.5t-19 -40.5t-35 -25t-55.5 -16t-81 -4q-41 0 -71 3.5t-52 9.5t-36 20 t-22.5 27.5t-13 39t-5.5 49t-1 62.5zM643 1004v53q0 29 1 43.5t6.5 37.5t17.5 48l96 215q16 33 40 43t64 10q29 0 84 -22q69 -29 86 -43t17 -39q0 -26 -17 -64l-39 -88q-6 -15 -6 -29q0 -10 6 -14q45 -29 45 -151q0 -46 -1.5 -72t-8 -53.5t-19 -40.5t-35 -25t-55.5 -16 t-81 -4q-41 0 -71 3.5t-52 9.5t-36 20t-22.5 27.5t-13 39t-5.5 49t-1 62.5z" />
<glyph unicode="&#x201d;" horiz-adv-x="1134" d="M82 866q0 24 16 64l37 88q6 8 6 26q0 12 -4 15q-45 29 -45 151q0 39 1 62.5t5.5 49t13 39t22.5 27.5t36 20t52 9.5t71 3.5t71 -3.5t52 -9.5t36 -20t22.5 -27.5t13 -39t5.5 -49t1 -62.5v-53q0 -29 -1 -43.5t-6.5 -37.5t-17.5 -48l-96 -215q-16 -34 -40 -43.5t-67 -9.5 q-26 0 -82 22q-69 29 -85.5 43t-16.5 41zM643 866q0 24 16 64l37 88q6 8 6 26q0 12 -4 15q-45 29 -45 151q0 39 1 62.5t5.5 49t13 39t22.5 27.5t36 20t52 9.5t71 3.5t71 -3.5t52 -9.5t36 -20t22.5 -27.5t13 -39t5.5 -49t1 -62.5v-53q0 -29 -1 -43.5t-6.5 -37.5t-17.5 -48 l-96 -215q-16 -34 -40 -43.5t-67 -9.5q-26 0 -82 22q-69 29 -85.5 43t-16.5 41z" />
<glyph unicode="&#x201e;" horiz-adv-x="1134" d="M82 -152q0 24 16 64l37 88q6 8 6 27q0 11 -4 14q-45 29 -45 152q0 46 1.5 72t8.5 53t19.5 40.5t35 25t55.5 15.5t81 4t81 -4t55.5 -15.5t35 -25t19.5 -40.5t8.5 -53t1.5 -72v-54q0 -29 -1 -43.5t-6.5 -37.5t-17.5 -48l-96 -215q-16 -34 -40 -43.5t-67 -9.5q-26 0 -82 22 q-69 29 -85.5 43t-16.5 41zM643 -152q0 24 16 64l37 88q6 8 6 27q0 11 -4 14q-45 29 -45 152q0 46 1.5 72t8.5 53t19.5 40.5t35 25t55.5 15.5t81 4t81 -4t55.5 -15.5t35 -25t19.5 -40.5t8.5 -53t1.5 -72v-54q0 -29 -1 -43.5t-6.5 -37.5t-17.5 -48l-96 -215 q-16 -34 -40 -43.5t-67 -9.5q-26 0 -82 22q-69 29 -85.5 43t-16.5 41z" />
<glyph unicode="&#x2022;" horiz-adv-x="1044" d="M213 711q0 126 89 214.5t218 88.5t219 -88.5t90 -214.5t-90 -213.5t-219 -87.5t-218 87.5t-89 213.5z" />
<glyph unicode="&#x2026;" horiz-adv-x="1740" d="M88 193q0 46 1.5 72t8.5 53t19.5 40.5t35 25t55.5 15.5t81 4t81 -4t55.5 -15.5t35 -25t19 -41t8 -53t1.5 -71.5t-1.5 -72t-8 -53.5t-19 -40.5t-35 -25t-55.5 -16t-81 -4q-41 0 -71 3.5t-52 9.5t-36 20t-22.5 27.5t-13 39t-5.5 49t-1 62.5zM668 193q0 46 1.5 71.5t8 53 t19 41t35 25t55.5 15.5t81 4t81 -4t55.5 -15.5t35 -25t19.5 -40.5t8.5 -53t1.5 -72q0 -39 -1 -62.5t-5.5 -49t-13 -39t-22.5 -27.5t-36 -20t-52 -9.5t-71 -3.5q-48 0 -81 4t-55.5 16t-35 25t-19 40.5t-8 53.5t-1.5 72zM1249 193q0 46 1.5 72t8.5 53t19.5 40.5t35 25 t55.5 15.5t81 4t81 -4t55.5 -15.5t35 -25t19.5 -40.5t8.5 -53t1.5 -72q0 -39 -1 -62.5t-5.5 -49t-13 -39t-22.5 -27.5t-36 -20t-52 -9.5t-71 -3.5t-71 3.5t-52 9.5t-36 20t-22.5 27.5t-13 39t-5.5 49t-1 62.5z" />
<glyph unicode="&#x202f;" horiz-adv-x="383" />
<glyph unicode="&#x2039;" horiz-adv-x="741" d="M94 438v121l314 379l225 -211l-191 -227l191 -228l-225 -211z" />
<glyph unicode="&#x203a;" horiz-adv-x="741" d="M109 272l190 228l-190 227l225 211l315 -379v-121l-315 -377z" />
<glyph unicode="&#x205f;" horiz-adv-x="479" />
<glyph unicode="&#x20ac;" d="M68 432l38 215h132v70h-170l38 213h142q8 87 29.5 156.5t62.5 130t101 100.5t149.5 63t204.5 23q198 0 387 -49l-39 -330q-196 49 -365 49q-58 0 -99.5 -38t-51.5 -105h450l-39 -213h-417v-70h409l-39 -215h-364q21 -125 188 -125q157 0 350 49l37 -325 q-185 -54 -383 -54q-122 0 -216 22t-157.5 60.5t-106 97t-63.5 125t-28 150.5h-180z" />
<glyph unicode="&#x2122;" d="M55 1249v152h449v-152h-127v-393h-195v393h-127zM594 856v545h180l117 -232l113 232h186v-545h-189v166l-45 -90h-135l-41 86v-162h-186z" />
<glyph unicode="&#x25fc;" horiz-adv-x="1024" d="M0 0v1024h1024v-1024h-1024z" />
<glyph unicode="&#xfb01;" horiz-adv-x="1390" d="M20 698v312h136v96q0 169 94.5 254.5t306.5 85.5q107 0 250 -21l-23 -303q-84 19 -135 19q-62 0 -84 -28t-22 -75v-28h213v-312h-213v-698h-387v698h-136zM881 1278q0 38 1 60.5t5 47.5t12.5 38.5t22.5 26.5t35.5 19t51 9.5t70.5 3.5q48 0 81 -4t55.5 -15t35 -24 t19.5 -40t8.5 -52t1.5 -70t-1.5 -70.5t-8.5 -52t-19.5 -39.5t-35 -24.5t-55.5 -15t-81 -3.5t-80 3.5t-54.5 15t-35 24t-19 39.5t-8 52.5t-1.5 70.5zM889 0v1024h387v-1024h-387z" />
<glyph unicode="&#xfb02;" horiz-adv-x="1421" d="M20 698v312h136v96q0 169 94.5 254.5t306.5 85.5q107 0 250 -21l-23 -303q-84 19 -135 19q-62 0 -84 -28t-22 -75v-28h213v-312h-213v-698h-387v698h-136zM881 274v1145l387 35v-1124q0 -29 30 -29q39 0 86 14l58 -282q-154 -53 -316 -53q-56 0 -93 4.5t-66 18.5 t-44.5 33t-25.5 54.5t-13 77t-3 106.5z" />
</font>
</defs>
</svg>
